<?xml version="1.0" encoding="UTF-8" standalone="no"?>
<svg id="ic_launcher" xmlns:rdf="http://www.w3.org/1999/02/22-rdf-syntax-ns#" xmlns="http://www.w3.org/2000/svg" height="24" viewBox="0 0 24 24" width="24" version="1.1" xmlns:cc="http://creativecommons.org/ns#" xmlns:dc="http://purl.org/dc/elements/1.1/">
 <metadata id="metadata63">
  <rdf:RDF>
   <cc:Work rdf:about="">
    <dc:format>image/svg+xml</dc:format>
    <dc:type rdf:resource="http://purl.org/dc/dcmitype/StillImage"/>
    <dc:title/>
   </cc:Work>
  </rdf:RDF>
 </metadata>
 <defs id="defs3">
  <linearGradient id="gradientBackground" x2="0" gradientUnits="userSpaceOnUse" y2="108" gradientTransform="matrix(.20408 0 0 .20408 .97974 .97959)">
   <stop id="gradientBackgroundStart" stop-color="#787878" offset="0"/>
   <stop id="gradientBackgroundEnd" stop-color="#474747" offset="1"/>
  </linearGradient>
  <linearGradient id="gradientLongShadow" y2="108" gradientUnits="userSpaceOnUse" y1="35.615" gradientTransform="matrix(.20408 0 0 .20408 .97974 -1.4694)" x2="108" x1="35.615">
   <stop id="stop9" stop-color="#1a237e" stop-opacity=".2" offset="0"/>
   <stop id="stop11" stop-opacity="0" offset="1"/>
  </linearGradient>
  <radialGradient id="gradientFinish" gradientUnits="userSpaceOnUse" cy="0" cx="0" gradientTransform="matrix(.20408 0 0 .20408 .97974 .97959)" r="108">
   <stop id="stop14" stop-color="#fff" stop-opacity=".1" offset="0"/>
   <stop id="stop16" stop-color="#fff" stop-opacity="0" offset="1"/>
  </radialGradient>
  <filter id="blurDropShadow" style="color-interpolation-filters:sRGB" height="1.048" width="1.048" y="-.024" x="-.024">
   <feGaussianBlur id="feGaussianBlur19" stdDeviation="0.54"/>
  </filter>
  <filter id="blurMessageShadow" style="color-interpolation-filters:sRGB" height="1.048" width="1.048" y="-.024" x="-.024">
   <feGaussianBlur id="feGaussianBlur22" stdDeviation="0.84"/>
  </filter>
  <filter id="blurAndroidShadow" style="color-interpolation-filters:sRGB" height="1.048" width="1.048" y="-.024" x="-.024">
   <feGaussianBlur id="feGaussianBlur25" stdDeviation="0.72"/>
  </filter>
 </defs>
 <g id="backShadowCircle" display="none" transform="translate(0,-84)">
  <circle id="circle28" opacity="0.12" filter="url(#blurAndroidShadow)" cy="54" cx="54" r="36"/>
  <circle id="circle30" opacity="0.24" filter="url(#blurAndroidShadow)" cy="55" cx="54" r="36"/>
 </g>
 <g id="backShadowSquircle" display="none" transform="translate(0,-84)">
  <path id="path33" opacity="0.12" d="m54 18c-30.857 0-36 5.143-36 36s5.143 36 36 36 36-5.143 36-36-5.143-36-36-36z" filter="url(#blurAndroidShadow)"/>
  <path id="path35" opacity="0.24" d="m54 19c-30.857 0-36 5.143-36 36s5.143 36 36 36 36-5.143 36-36-5.143-36-36-36z" filter="url(#blurAndroidShadow)"/>
 </g>
 <g id="backShadowSquare" display="none" transform="translate(0,-84)">
  <path id="path38" opacity="0.12" d="m30 18c-1.662 0-3.243 0.334-4.68 0.939-1.437 0.606-2.73 1.484-3.814 2.568-1.085 1.085-1.963 2.378-2.568 3.814-0.604 1.438-0.938 3.019-0.938 4.679v47.996c0 1.662 0.334 3.243 0.939 4.68 0.606 1.437 1.484 2.73 2.568 3.814 1.085 1.085 2.378 1.963 3.814 2.568 1.438 0.606 3.019 0.94 4.681 0.94h47.996c1.662 0 3.243-0.334 4.68-0.939 1.437-0.606 2.73-1.484 3.814-2.568 1.085-1.085 1.963-2.378 2.568-3.814 0.606-1.436 0.94-3.017 0.94-4.679v-47.998c0-1.66-0.334-3.241-0.939-4.678-0.606-1.437-1.484-2.73-2.569-3.814-1.084-1.085-2.377-1.963-3.814-2.569-1.437-0.605-3.018-0.939-4.68-0.939h-47.996z" filter="url(#blurAndroidShadow)"/>
  <path id="path40" opacity="0.24" d="m30 19c-1.662 0-3.243 0.334-4.68 0.939-1.437 0.606-2.73 1.484-3.814 2.568-1.085 1.085-1.963 2.378-2.568 3.814-0.606 1.438-0.94 3.019-0.94 4.681v47.996c0 1.662 0.334 3.243 0.939 4.68 0.606 1.437 1.484 2.73 2.568 3.814 1.085 1.085 2.378 1.963 3.814 2.568 1.438 0.606 3.019 0.94 4.681 0.94h47.996c1.662 0 3.243-0.334 4.68-0.939 1.437-0.606 2.73-1.484 3.814-2.568 1.085-1.085 1.963-2.378 2.568-3.814 0.606-1.438 0.94-3.019 0.94-4.681v-47.996c0-1.662-0.334-3.243-0.939-4.68-0.606-1.437-1.484-2.73-2.569-3.814-1.084-1.085-2.377-1.963-3.814-2.569-1.437-0.605-3.018-0.939-4.68-0.939h-47.996z" filter="url(#blurAndroidShadow)"/>
 </g>
 <g id="backShadowMessage" display="none" transform="translate(0,-84)">
  <path id="path43" opacity="0.12" d="m12 23v62h42l23.1 22v-22h18.9v-62z" filter="url(#blurMessageShadow)"/>
  <path id="path45" opacity="0.24" d="m12 24v62h42l23.1 22v-22h18.9v-62z" filter="url(#blurMessageShadow)"/>
 </g>
 <path id="path47" fill="url(#gradientBackground)" d="m2.0001 2v15.204h9.9992l5.5 4.796v-0.0021l0.0012 0.0021v-4.7959h4.4982 0.002v-6.6103l-0.002-0.001v-8.593h-19.998z"/>
 <path id="path49" fill="url(#gradientFinish)" d="m2.0001 2v15.204h9.9992l5.5 4.796v-0.0021l0.0012 0.0021v-4.7959h4.4982 0.002v-6.6103l-0.002-0.001v-8.593h-19.998z"/>
 <path id="layerLongShadow" fill="url(#gradientLongShadow)" d="m13.171 18.226 4.328 3.774v-0.0021l0.0012 0.0021v-4.7959h4.4982 0.002v-5.157l-6.248-6.248-0.345-0.3145c-0.922-0.7731-2.11-1.2396-3.407-1.2396-2.9304 0-5.3061 2.3757-5.3061 5.3062 0 1.2973 0.46651 2.4853 1.2396 3.4071l0.31448 0.3449 4.9227 4.9228z"/>
 <path id="layerDropShadow" d="m28 42c0-14.912 12.088-27 27-27s27 12.088 27 27-12.088 27-27 27-27-12.088-27-27zm6.75 0c0 0.676 0.032 1.353 0.102 2.023 0.065 0.67 0.168 1.336 0.303 2.001 0.13 0.66 0.298 1.314 0.497 1.958 0.201 0.649 0.433 1.282 0.698 1.904 0.26 0.623 0.552 1.228 0.876 1.824 0.324 0.594 0.676 1.167 1.061 1.725 0.378 0.557 0.789 1.092 1.221 1.612 0.439 0.514 0.899 1.011 1.38 1.482 0.486 0.471 0.994 0.914 1.524 1.336 0.525 0.417 1.077 0.811 1.645 1.174 0.568 0.367 1.152 0.702 1.757 1.011 0.601 0.303 1.217 0.579 1.844 0.822 0.633 0.249 1.271 0.46 1.92 0.644 0.655 0.179 1.314 0.324 1.98 0.443 0.665 0.114 1.335 0.195 2.006 0.244 0.479 0.03 0.96 0.047 1.436 0.047 0.676 0 1.353-0.032 2.023-0.102 0.67-0.065 1.342-0.168 2.001-0.303 0.66-0.13 1.314-0.298 1.958-0.497 0.649-0.201 1.282-0.433 1.904-0.698 0.623-0.26 1.234-0.552 1.824-0.876 0.594-0.324 1.167-0.676 1.725-1.061 0.557-0.378 1.098-0.789 1.612-1.221 0.514-0.439 1.011-0.899 1.482-1.38 0.471-0.486 0.914-0.994 1.336-1.524 0.417-0.525 0.811-1.077 1.18-1.645 0.361-0.568 0.696-1.152 1.005-1.757 0.303-0.601 0.579-1.217 0.828-1.844 0.244-0.633 0.454-1.271 0.638-1.92 0.179-0.655 0.324-1.314 0.443-1.98 0.114-0.665 0.195-1.335 0.244-2.006 0.03-0.479 0.047-0.96 0.047-1.436 0-0.676-0.032-1.353-0.102-2.023-0.065-0.67-0.168-1.342-0.298-2.001-0.136-0.66-0.303-1.314-0.503-1.958-0.201-0.649-0.433-1.282-0.692-1.904-0.266-0.623-0.558-1.234-0.882-1.824-0.324-0.594-0.676-1.167-1.061-1.725-0.378-0.557-0.789-1.092-1.221-1.612-0.439-0.514-0.899-1.011-1.38-1.482-0.486-0.471-0.994-0.914-1.519-1.336-0.53-0.417-1.083-0.811-1.65-1.18-0.568-0.361-1.152-0.696-1.752-1.005-0.607-0.302-1.223-0.577-1.85-0.826-0.627-0.244-1.271-0.455-1.921-0.639-0.649-0.178-1.308-0.324-1.974-0.443-0.665-0.113-1.336-0.195-2.012-0.244-0.476-0.031-0.951-0.048-1.433-0.048-0.676 0-1.347 0.032-2.023 0.102-0.67 0.065-1.336 0.168-2.001 0.303-0.66 0.13-1.314 0.298-1.958 0.497-0.649 0.201-1.282 0.433-1.904 0.698-0.623 0.26-1.228 0.552-1.824 0.876-0.59 0.324-1.167 0.676-1.725 1.061-0.557 0.378-1.092 0.789-1.612 1.221-0.514 0.439-1.011 0.899-1.482 1.38-0.471 0.486-0.914 0.994-1.336 1.524-0.417 0.525-0.811 1.077-1.174 1.645-0.367 0.568-0.702 1.152-1.011 1.757-0.303 0.601-0.579 1.217-0.822 1.844-0.249 0.633-0.46 1.271-0.638 1.92-0.184 0.655-0.33 1.314-0.443 1.98-0.118 0.667-0.2 1.337-0.243 2.009-0.037 0.476-0.054 0.957-0.054 1.433zm23.626 9c0-3.104 2.52-5.624 5.624-5.624s5.624 2.52 5.624 5.624-2.52 5.624-5.624 5.624-5.624-2.52-5.624-5.624z" fill-opacity=".2" transform="matrix(.20408 0 0 .20408 .97974 .97959)" filter="url(#blurDropShadow)" fill="#263238"/>
 <path id="layerForegroundIcon" fill="#fff" d="m6.4897 9.551c0-3.0434 2.4672-5.5103 5.5103-5.5103 3.0432 0 5.5103 2.4669 5.5103 5.5103 0 3.0433-2.4669 5.5103-5.5103 5.5103-3.0432 0-5.5103-2.4669-5.5103-5.5103zm1.3775 0c0 0.13796 0.0065 0.27612 0.02082 0.41286 0.01326 0.13673 0.03428 0.27265 0.06184 0.40838 0.02653 0.13469 0.06082 0.26816 0.10143 0.39959 0.04102 0.13245 0.08836 0.26163 0.14245 0.38859 0.05306 0.12714 0.11265 0.25061 0.17877 0.37224 0.06612 0.12122 0.13796 0.23816 0.21653 0.35203 0.07714 0.11367 0.16102 0.22286 0.24918 0.32898 0.08959 0.1049 0.18347 0.20633 0.28163 0.30245 0.09918 0.09612 0.20286 0.18653 0.31102 0.27265 0.10714 0.0851 0.21979 0.16551 0.33571 0.23959 0.11592 0.0749 0.2351 0.14326 0.35858 0.20633 0.12265 0.06184 0.24836 0.11816 0.3763 0.16776 0.12918 0.05082 0.25938 0.09388 0.39182 0.13143 0.13367 0.03653 0.26816 0.06612 0.40406 0.09041 0.13571 0.02327 0.27244 0.0398 0.40937 0.0498 0.09775 0.0061 0.19591 0.0096 0.29306 0.0096 0.13796 0 0.27612-0.0065 0.41286-0.02082 0.13673-0.01326 0.27387-0.03429 0.40837-0.06184 0.13469-0.02653 0.26816-0.06082 0.39958-0.10143 0.13245-0.04102 0.26163-0.08837 0.38858-0.14245 0.12714-0.05306 0.25183-0.11265 0.37224-0.17878 0.12122-0.06612 0.23816-0.13796 0.35203-0.21653 0.11367-0.07715 0.22408-0.16102 0.32897-0.24918 0.1049-0.08959 0.20632-0.18347 0.30244-0.28164 0.09612-0.09918 0.18653-0.20286 0.27265-0.31102 0.0851-0.10714 0.16551-0.2198 0.24081-0.33571 0.07367-0.11592 0.14204-0.2351 0.2051-0.35859 0.06184-0.12265 0.11816-0.24837 0.16898-0.37631 0.0498-0.12918 0.09265-0.25939 0.1302-0.39183 0.03653-0.13367 0.06612-0.26816 0.09041-0.40407 0.02327-0.13571 0.0398-0.27245 0.0498-0.40938 0.0061-0.09775 0.0096-0.19592 0.0096-0.29306 0-0.13796-0.0065-0.27612-0.02082-0.41286-0.014-0.1366-0.035-0.2737-0.061-0.4083-0.028-0.1346-0.062-0.2681-0.103-0.3995-0.041-0.1325-0.088-0.2617-0.141-0.3886-0.054-0.1272-0.114-0.2519-0.18-0.3723-0.066-0.121-0.138-0.2379-0.217-0.352-0.077-0.1135-0.161-0.2228-0.249-0.329-0.09-0.1048-0.183-0.2062-0.282-0.3024s-0.202-0.1866-0.31-0.2728c-0.108-0.0848-0.221-0.1655-0.336-0.2407-0.116-0.0738-0.235-0.142-0.358-0.2051-0.124-0.0614-0.249-0.1176-0.377-0.1687-0.128-0.0496-0.26-0.0927-0.392-0.1303-0.13241-0.03621-0.26689-0.06586-0.40275-0.09034-0.13586-0.0231-0.27276-0.03966-0.41068-0.04966-0.09724-0.0066-0.19414-0.01-0.29241-0.01-0.13796 0-0.27489 0.0065-0.41286 0.02082-0.13673 0.01327-0.27265 0.03429-0.40837 0.06184-0.13469 0.02653-0.26816 0.06082-0.39958 0.10143-0.13245 0.04102-0.26163 0.08837-0.38858 0.14245-0.12714 0.05306-0.25061 0.11265-0.37224 0.17878-0.1203 0.0661-0.238 0.138-0.3519 0.2165-0.1137 0.0772-0.2229 0.1611-0.329 0.2492-0.1049 0.0896-0.2063 0.1835-0.3024 0.2817-0.0961 0.0991-0.1866 0.2028-0.2727 0.311-0.0851 0.1071-0.1655 0.2198-0.2396 0.3357-0.0749 0.1159-0.1432 0.2351-0.2063 0.3586-0.0618 0.1226-0.1181 0.2483-0.1677 0.3763-0.0509 0.1292-0.0939 0.2594-0.1302 0.3918-0.0376 0.1337-0.0674 0.2682-0.0904 0.4041-0.0241 0.1361-0.0409 0.2728-0.0496 0.41-0.0076 0.0971-0.0111 0.1953-0.0111 0.2924zm4.8216 1.8367c0-0.63348 0.51427-1.1478 1.1477-1.1478 0.63347 0 1.1477 0.51428 1.1477 1.1478 0 0.63348-0.51427 1.1478-1.1477 1.1478-0.63347 0-1.1477-0.51428-1.1477-1.1478z"/>
 <path id="layerForegroundShade" fill-opacity=".1" fill="#212121" d="m12 5.3124c-0.09714 0-0.1953 0.0035-0.29244 0.0098-0.13714 0.0098-0.27387 0.02653-0.40937 0.0498-0.13592 0.02429-0.2704 0.05388-0.40406 0.09163-0.13245 0.03653-0.26285 0.07939-0.39182 0.1302-0.12796 0.0498-0.25367 0.10592-0.3763 0.16776-0.123 0.0627-0.2427 0.1314-0.3586 0.2063-0.1159 0.0741-0.2286 0.1545-0.3357 0.2408-0.1082 0.0851-0.2118 0.1756-0.3102 0.2717-0.0992 0.0961-0.1931 0.1975-0.2814 0.3024-0.0894 0.1059-0.1721 0.2153-0.2504 0.329-0.0786 0.1139-0.1504 0.2308-0.2166 0.352-0.0661 0.1215-0.1257 0.2449-0.1787 0.3723-0.0539 0.1269-0.1015 0.2559-0.1425 0.3886-0.0406 0.1314-0.0749 0.2647-0.1014 0.3996-0.0278 0.1357-0.0486 0.2716-0.0619 0.4093-0.0144 0.1368-0.0208 0.2739-0.0208 0.4117 0.0012 0.02082 0.0012 0.04102 0.0022 0.06184 0.0012-0.1227 0.0065-0.2461 0.0186-0.3688 0.0133-0.1367 0.0343-0.2726 0.0618-0.4083 0.0278-0.1347 0.0609-0.2682 0.1015-0.3996 0.041-0.1325 0.0883-0.2617 0.1424-0.3886 0.0531-0.1272 0.1139-0.2506 0.1788-0.3723 0.0661-0.1212 0.139-0.2381 0.2165-0.352 0.0784-0.1137 0.161-0.2241 0.2504-0.329 0.0884-0.1059 0.1823-0.2063 0.2814-0.3024 0.0984-0.0961 0.2021-0.1865 0.3102-0.2727 0.1082-0.0851 0.2198-0.1655 0.3357-0.2408 0.116-0.0737 0.2367-0.142 0.3587-0.2051 0.12265-0.06306 0.24836-0.11816 0.3763-0.16898 0.12918-0.0498 0.25938-0.09265 0.39306-0.1302 0.13245-0.03653 0.26693-0.06735 0.40286-0.09041 0.13571-0.02327 0.27244-0.0398 0.40937-0.0498 0.09796-0.0065 0.1953-0.0098 0.29244-0.0098 0.13796 0 0.27612 0.0065 0.41286 0.02082 0.13673 0.01327 0.27387 0.03429 0.40837 0.06184 0.13592 0.02653 0.26816 0.06082 0.40062 0.10143 0.13142 0.04102 0.26061 0.08836 0.38734 0.14122 0.12714 0.05429 0.25183 0.11388 0.37224 0.18 0.12122 0.06612 0.23816 0.13796 0.35203 0.21653 0.11367 0.07714 0.22408 0.16102 0.32898 0.24918 0.10592 0.08959 0.20632 0.18347 0.30244 0.28163 0.09612 0.09918 0.18755 0.20286 0.27265 0.31 0.08612 0.10816 0.16551 0.22102 0.24081 0.33674 0.07367 0.11592 0.14204 0.2351 0.2051 0.35859 0.06306 0.12265 0.11918 0.24837 0.16898 0.37631 0.0498 0.12918 0.09265 0.25939 0.1302 0.39183 0.03653 0.13367 0.06735 0.26816 0.09041 0.40407 0.02327 0.13571 0.0398 0.27245 0.0498 0.40938 0.0043 0.07714 0.0076 0.15347 0.0076 0.23061 0.0012-0.01531 0.0022-0.02959 0.0022-0.04408 0-0.09714-0.0035-0.19531-0.0098-0.29245-0.0098-0.13714-0.02653-0.27388-0.04979-0.40938-0.023-0.1358-0.054-0.2703-0.09-0.404-0.038-0.1324-0.081-0.2627-0.131-0.3917-0.05-0.1283-0.107-0.2538-0.169-0.3766-0.063-0.1234-0.131-0.2427-0.205-0.3586-0.075-0.1158-0.154-0.2286-0.241-0.3365-0.086-0.1073-0.176-0.2111-0.272-0.309-0.097-0.0993-0.197-0.1931-0.303-0.2824-0.105-0.0886-0.215-0.1724-0.329-0.2497-0.113-0.0786-0.23-0.1503-0.352-0.2165-0.12-0.0648-0.245-0.1259-0.372-0.179-0.127-0.0538-0.256-0.1014-0.388-0.1424-0.132-0.0403-0.265-0.0734-0.4-0.1014-0.135-0.0276-0.272-0.0486-0.408-0.0617-0.137-0.0145-0.276-0.0207-0.413-0.0207zm-5.5079 4.1769c-0.001 0.02-0.001 0.04102-0.0022 0.06184 0 3.0433 2.4669 5.5103 5.5103 5.5103 3.0432 0 5.5103-2.4669 5.5103-5.5103-0.001-0.01449-0.001-0.02878-0.0022-0.04286 0 0.10898-0.0043 0.21735-0.01102 0.32673-0.01327 0.18306-0.03531 0.36652-0.06735 0.54734-0.03102 0.18122-0.07061 0.36-0.1204 0.53652-0.04857 0.17776-0.10714 0.35204-0.17326 0.52307-0.06735 0.17122-0.14245 0.33918-0.2253 0.50245-0.08286 0.16449-0.17428 0.32327-0.27387 0.47776-0.09918 0.15449-0.20632 0.30469-0.3202 0.44817-0.11469 0.14469-0.23632 0.28265-0.36427 0.41386-0.12796 0.13245-0.26244 0.25714-0.40286 0.37531-0.1402 0.11816-0.28673 0.2298-0.43796 0.33347-0.15224 0.10367-0.30918 0.1998-0.4702 0.28796-0.16142 0.08837-0.32693 0.16776-0.49572 0.23959-0.16898 0.07184-0.34224 0.13449-0.51775 0.18878-0.17551 0.05388-0.35327 0.09918-0.53327 0.13674-0.18 0.03653-0.36203 0.06408-0.5453 0.08163-0.18204 0.01898-0.36651 0.02776-0.54958 0.02776-0.1302 0-0.26061-0.0045-0.38958-0.01327-0.18306-0.01327-0.36651-0.03531-0.54734-0.06735-0.18081-0.03102-0.35958-0.07061-0.5363-0.12041-0.17775-0.04857-0.35203-0.10694-0.52306-0.17306-0.1726-0.067-0.3403-0.142-0.5038-0.225-0.1645-0.083-0.3232-0.174-0.4777-0.274-0.1555-0.099-0.3059-0.206-0.4493-0.321-0.1445-0.114-0.2824-0.236-0.4138-0.364-0.1324-0.128-0.2573-0.262-0.3752-0.402-0.1193-0.141-0.23-0.288-0.3334-0.439-0.1037-0.152-0.1998-0.309-0.288-0.47-0.0883-0.161-0.1677-0.327-0.2396-0.496-0.0718-0.169-0.1347-0.342-0.1887-0.517-0.0539-0.176-0.0992-0.354-0.1368-0.534-0.0365-0.18-0.0641-0.362-0.0816-0.545-0.0167-0.1675-0.0255-0.3365-0.0255-0.5055zm6.1985 1.8367c-0.001 0.02-0.002 0.04102-0.002 0.06184 0 0.63348 0.51306 1.1478 1.1477 1.1478 0.63347 0 1.1477-0.51428 1.1477-1.1478 0-0.01449-0.000828-0.02959-0.002-0.04408v0.0198c-0.0035 0.03755-0.008 0.07633-0.01449 0.11367-0.0067 0.03755-0.01551 0.0751-0.02551 0.11163-0.0098 0.03755-0.02204 0.07286-0.03653 0.10939-0.01327 0.03531-0.02857 0.07061-0.04633 0.1049-0.01755 0.03429-0.03653 0.06735-0.05735 0.09918-0.02082 0.03224-0.04285 0.06306-0.06612 0.09265-0.02429 0.03102-0.0498 0.05959-0.07633 0.08735-0.02653 0.02653-0.05388 0.05306-0.08388 0.07714-0.02959 0.02551-0.05959 0.04857-0.09163 0.0698-0.03082 0.02204-0.06408 0.04184-0.09714 0.06041-0.03428 0.01776-0.06836 0.03429-0.10367 0.0498-0.03531 0.01449-0.07184 0.02775-0.10816 0.0398-0.03653 0.01102-0.07286 0.0198-0.1102 0.02735-0.03755 0.008-0.07633 0.01327-0.11387 0.01776-0.03836 0.0035-0.07592 0.0057-0.11469 0.0057-0.02775 0-0.05387-0.001-0.08163-0.0035-0.03755-0.0022-0.07633-0.0067-0.11367-0.01327-0.03755-0.0067-0.0751-0.01551-0.11163-0.02551-0.03653-0.0098-0.07408-0.02204-0.10938-0.03653-0.03531-0.01327-0.07061-0.02857-0.1049-0.04633-0.03429-0.01755-0.06735-0.03653-0.09918-0.05735-0.03225-0.02082-0.06306-0.04286-0.09388-0.06612-0.03-0.02429-0.05857-0.0498-0.08612-0.07633-0.02653-0.02653-0.05306-0.05388-0.07714-0.08388-0.02551-0.02959-0.04857-0.05959-0.06979-0.09163-0.02204-0.03082-0.04184-0.06408-0.05938-0.09714-0.01898-0.03429-0.03551-0.06837-0.05082-0.10367-0.01449-0.03531-0.02775-0.07184-0.03877-0.10816-0.01225-0.03653-0.02082-0.07286-0.02857-0.11143-0.008-0.03653-0.01326-0.0751-0.01776-0.11265-0.0022-0.02429-0.0035-0.04755-0.0035-0.07061z"/>
 <g id="g38" fill-rule="evenodd" transform="matrix(.34482 0 0 .34483 .96567 .96552)">
  <path id="path55" d="m60.994 27.919v0.59184l0.0059 0.003v-0.59184l-0.0059-0.003z"/>
  <path id="path57" fill-opacity=".2" fill="#fff" d="m3 3v0.59184h57.994v-0.5918h-57.994z"/>
  <path id="path59" fill-opacity=".2" fill="#263238" d="m3 46.5v0.59184h28.998l15.948 13.908v-0.006l0.0036 0.006v-0.59184l-0.0036-0.006v0.006l-15.948-13.908h-28.998zm44.949 0v0.59184h13.045 0.0059v-0.59184h-0.0059-13.045z"/>
 </g>
</svg>
