<?xml version="1.0" encoding="UTF-8" standalone="no"?>
<svg id="svg2" xmlns:rdf="http://www.w3.org/1999/02/22-rdf-syntax-ns#" xmlns="http://www.w3.org/2000/svg" height="64" width="64" version="1.1" xmlns:cc="http://creativecommons.org/ns#" xmlns:dc="http://purl.org/dc/elements/1.1/">
 <metadata id="metadata45">
  <rdf:RDF>
   <cc:Work rdf:about="">
    <dc:format>image/svg+xml</dc:format>
    <dc:type rdf:resource="http://purl.org/dc/dcmitype/StillImage"/>
    <dc:title/>
   </cc:Work>
  </rdf:RDF>
 </metadata>
 <g id="layer3" transform="translate(0,16)" fill-rule="evenodd">
  <g id="g7" transform="matrix(.33412 0 0 .33412 -.015294 32.038)" fill="#f00">
   <circle id="path6338" cy="-19.667" cx="124.33" r="17.708"/>
   <path id="path6443" d="m96-133a85 85 0 0 0 -85 85 85 85 0 0 0 85 85 85 85 0 0 0 85 -85 85 85 0 0 0 -85 -85zm0 21.25a63.75 63.75 0 0 1 6.3639 0.3182 63.75 63.75 0 0 1 6.3017 0.95113 63.75 63.75 0 0 1 6.1737 1.5771 63.75 63.75 0 0 1 5.9869 2.1859 63.75 63.75 0 0 1 5.7379 2.7704 63.75 63.75 0 0 1 5.4301 3.3307 63.75 63.75 0 0 1 5.0739 3.8564 63.75 63.75 0 0 1 4.6623 4.3441 63.75 63.75 0 0 1 4.2057 4.7868 63.75 63.75 0 0 1 3.7077 5.1845 63.75 63.75 0 0 1 3.1716 5.5269 63.75 63.75 0 0 1 2.6009 5.8175 63.75 63.75 0 0 1 2.0095 6.0457 63.75 63.75 0 0 1 1.3973 6.2187 63.75 63.75 0 0 1 0.76783 6.3259 63.75 63.75 0 0 1 0.15902 4.5101 63.75 63.75 0 0 1 -0.3182 6.3639 63.75 63.75 0 0 1 -0.95113 6.3017 63.75 63.75 0 0 1 -1.5771 6.1737 63.75 63.75 0 0 1 -2.1859 5.9869 63.75 63.75 0 0 1 -2.7704 5.7379 63.75 63.75 0 0 1 -3.3307 5.4335 63.75 63.75 0 0 1 -3.8564 5.0704 63.75 63.75 0 0 1 -4.3441 4.6623 63.75 63.75 0 0 1 -4.7868 4.2057 63.75 63.75 0 0 1 -5.1845 3.7077 63.75 63.75 0 0 1 -5.5269 3.1716 63.75 63.75 0 0 1 -5.8175 2.6009 63.75 63.75 0 0 1 -6.0457 2.0095 63.75 63.75 0 0 1 -6.2187 1.3973 63.75 63.75 0 0 1 -6.3259 0.76783 63.75 63.75 0 0 1 -4.5101 0.15902 63.75 63.75 0 0 1 -6.3639 -0.3182 63.75 63.75 0 0 1 -6.3017 -0.95113 63.75 63.75 0 0 1 -6.176 -1.587 63.75 63.75 0 0 1 -5.987 -2.185 63.75 63.75 0 0 1 -5.738 -2.7708 63.75 63.75 0 0 1 -5.43 -3.3307 63.75 63.75 0 0 1 -5.074 -3.8564 63.75 63.75 0 0 1 -4.662 -4.3441 63.75 63.75 0 0 1 -4.2057 -4.7868 63.75 63.75 0 0 1 -3.7077 -5.1845 63.75 63.75 0 0 1 -3.1716 -5.5269 63.75 63.75 0 0 1 -2.6009 -5.8175 63.75 63.75 0 0 1 -2.0094 -6.0457 63.75 63.75 0 0 1 -1.3973 -6.2187 63.75 63.75 0 0 1 -0.76783 -6.3259 63.75 63.75 0 0 1 -0.15902 -4.5101 63.75 63.75 0 0 1 0.3182 -6.3639 63.75 63.75 0 0 1 0.95113 -6.3017 63.75 63.75 0 0 1 1.5771 -6.1737 63.75 63.75 0 0 1 2.1859 -5.9869 63.75 63.75 0 0 1 2.7704 -5.7379 63.75 63.75 0 0 1 3.3307 -5.4301 63.75 63.75 0 0 1 3.8564 -5.0739 63.75 63.75 0 0 1 4.3441 -4.6623 63.75 63.75 0 0 1 4.7868 -4.2057 63.75 63.75 0 0 1 5.1845 -3.7077 63.75 63.75 0 0 1 5.5269 -3.1716 63.75 63.75 0 0 1 5.8175 -2.6009 63.75 63.75 0 0 1 6.0457 -2.0095 63.75 63.75 0 0 1 6.2187 -1.3973 63.75 63.75 0 0 1 6.3259 -0.76783 63.75 63.75 0 0 1 4.51 -0.15902z"/>
  </g>
 </g>
</svg>
