<?xml version="1.0" encoding="UTF-8" standalone="no"?>
<svg id="ic_launcher" xmlns:rdf="http://www.w3.org/1999/02/22-rdf-syntax-ns#" xmlns="http://www.w3.org/2000/svg" height="32" viewBox="0 0 32 32" width="32" version="1.1" xmlns:cc="http://creativecommons.org/ns#" xmlns:dc="http://purl.org/dc/elements/1.1/">
 <metadata id="metadata63">
  <rdf:RDF>
   <cc:Work rdf:about="">
    <dc:format>image/svg+xml</dc:format>
    <dc:type rdf:resource="http://purl.org/dc/dcmitype/StillImage"/>
    <dc:title/>
   </cc:Work>
  </rdf:RDF>
 </metadata>
 <defs id="defs3">
  <linearGradient id="gradientBackground" x2="0" gradientUnits="userSpaceOnUse" y2="108" gradientTransform="matrix(.28571 0 0 .28571 .57143 .57143)">
   <stop id="gradientBackgroundStart" stop-color="#2883f2" offset="0"/>
   <stop id="gradientBackgroundEnd" stop-color="#0b50a5" offset="1"/>
  </linearGradient>
  <linearGradient id="gradientLongShadow" x1="35.615" gradientUnits="userSpaceOnUse" x2="108" gradientTransform="matrix(.28571 0 0 .28571 .57143 -2.8571)" y1="35.615" y2="108">
   <stop id="stop9" stop-color="#1a237e" stop-opacity=".2" offset="0"/>
   <stop id="stop11" stop-opacity="0" offset="1"/>
  </linearGradient>
  <radialGradient id="gradientFinish" gradientUnits="userSpaceOnUse" cy="0" cx="0" gradientTransform="matrix(.28571 0 0 .28571 .57143 .57143)" r="108">
   <stop id="stop14" stop-color="#fff" stop-opacity=".1" offset="0"/>
   <stop id="stop16" stop-color="#fff" stop-opacity="0" offset="1"/>
  </radialGradient>
  <filter id="blurDropShadow" style="color-interpolation-filters:sRGB" height="1.048" width="1.048" y="-.024" x="-.024">
   <feGaussianBlur id="feGaussianBlur19" stdDeviation="0.54"/>
  </filter>
  <filter id="blurMessageShadow" style="color-interpolation-filters:sRGB" height="1.048" width="1.048" y="-.024" x="-.024">
   <feGaussianBlur id="feGaussianBlur22" stdDeviation="0.84"/>
  </filter>
  <filter id="blurAndroidShadow" style="color-interpolation-filters:sRGB" height="1.048" width="1.048" y="-.024" x="-.024">
   <feGaussianBlur id="feGaussianBlur25" stdDeviation="0.72"/>
  </filter>
 </defs>
 <g id="backShadowCircle" transform="translate(0,-76)" display="none">
  <circle id="circle28" opacity="0.12" filter="url(#blurAndroidShadow)" cy="54" cx="54" r="36"/>
  <circle id="circle30" opacity="0.24" filter="url(#blurAndroidShadow)" cy="55" cx="54" r="36"/>
 </g>
 <g id="backShadowSquircle" transform="translate(0,-76)" display="none">
  <path id="path33" opacity="0.12" d="m54 18c-30.857 0-36 5.143-36 36s5.143 36 36 36 36-5.143 36-36-5.143-36-36-36z" filter="url(#blurAndroidShadow)"/>
  <path id="path35" opacity="0.24" d="m54 19c-30.857 0-36 5.143-36 36s5.143 36 36 36 36-5.143 36-36-5.143-36-36-36z" filter="url(#blurAndroidShadow)"/>
 </g>
 <g id="backShadowSquare" transform="translate(0,-76)" display="none">
  <path id="path38" opacity="0.12" d="m30 18c-1.662 0-3.243 0.334-4.68 0.939-1.437 0.606-2.73 1.484-3.814 2.568-1.085 1.085-1.963 2.378-2.568 3.814-0.604 1.438-0.938 3.019-0.938 4.679v47.996c0 1.662 0.334 3.243 0.939 4.68 0.606 1.437 1.484 2.73 2.568 3.814 1.085 1.085 2.378 1.963 3.814 2.568 1.438 0.606 3.019 0.94 4.681 0.94h47.996c1.662 0 3.243-0.334 4.68-0.939 1.437-0.606 2.73-1.484 3.814-2.568 1.085-1.085 1.963-2.378 2.568-3.814 0.606-1.436 0.94-3.017 0.94-4.679v-47.998c0-1.66-0.334-3.241-0.939-4.678-0.606-1.437-1.484-2.73-2.569-3.814-1.084-1.085-2.377-1.963-3.814-2.569-1.437-0.605-3.018-0.939-4.68-0.939h-47.996z" filter="url(#blurAndroidShadow)"/>
  <path id="path40" opacity="0.24" d="m30 19c-1.662 0-3.243 0.334-4.68 0.939-1.437 0.606-2.73 1.484-3.814 2.568-1.085 1.085-1.963 2.378-2.568 3.814-0.606 1.438-0.94 3.019-0.94 4.681v47.996c0 1.662 0.334 3.243 0.939 4.68 0.606 1.437 1.484 2.73 2.568 3.814 1.085 1.085 2.378 1.963 3.814 2.568 1.438 0.606 3.019 0.94 4.681 0.94h47.996c1.662 0 3.243-0.334 4.68-0.939 1.437-0.606 2.73-1.484 3.814-2.568 1.085-1.085 1.963-2.378 2.568-3.814 0.606-1.438 0.94-3.019 0.94-4.681v-47.996c0-1.662-0.334-3.243-0.939-4.68-0.606-1.437-1.484-2.73-2.569-3.814-1.084-1.085-2.377-1.963-3.814-2.569-1.437-0.605-3.018-0.939-4.68-0.939h-47.996z" filter="url(#blurAndroidShadow)"/>
 </g>
 <g id="backShadowMessage" transform="translate(0,-76)" display="none">
  <path id="path43" opacity="0.12" d="m12 23v62h42l23.1 22v-22h18.9v-62z" filter="url(#blurMessageShadow)"/>
  <path id="path45" opacity="0.24" d="m12 24v62h42l23.1 22v-22h18.9v-62z" filter="url(#blurMessageShadow)"/>
 </g>
 <path id="path47" fill="url(#gradientBackground)" d="m2 2v21.286h13.999l7.699 6.714v-0.0029l0.0017 0.0029v-6.7143h6.2974 0.0029v-9.2546l-0.0029-0.0015v-12.03h-27.997z"/>
 <path id="path49" fill="url(#gradientFinish)" d="m2 2v21.286h13.999l7.699 6.714v-0.0029l0.0017 0.0029v-6.7143h6.2974 0.0029v-9.2546l-0.0029-0.0015v-12.03h-27.997z"/>
 <path id="layerLongShadow" fill="url(#gradientLongShadow)" d="m17.639 24.716 6.0591 5.284v-0.0029l0.0017 0.0029v-6.7143h6.2974 0.0029l-0.000015-7.22-8.747-8.7474-0.483-0.4403c-1.291-1.0823-2.954-1.7354-4.77-1.7354-4.1026 0-7.4286 3.326-7.4286 7.4286 0 1.8163 0.65314 3.4794 1.7354 4.77l0.44029 0.48286 6.8917 6.8917z"/>
 <path id="layerDropShadow" d="m28 42c0-14.912 12.088-27 27-27s27 12.088 27 27-12.088 27-27 27-27-12.088-27-27zm6.75 0c0 0.676 0.032 1.353 0.102 2.023 0.065 0.67 0.168 1.336 0.303 2.001 0.13 0.66 0.298 1.314 0.497 1.958 0.201 0.649 0.433 1.282 0.698 1.904 0.26 0.623 0.552 1.228 0.876 1.824 0.324 0.594 0.676 1.167 1.061 1.725 0.378 0.557 0.789 1.092 1.221 1.612 0.439 0.514 0.899 1.011 1.38 1.482 0.486 0.471 0.994 0.914 1.524 1.336 0.525 0.417 1.077 0.811 1.645 1.174 0.568 0.367 1.152 0.702 1.757 1.011 0.601 0.303 1.217 0.579 1.844 0.822 0.633 0.249 1.271 0.46 1.92 0.644 0.655 0.179 1.314 0.324 1.98 0.443 0.665 0.114 1.335 0.195 2.006 0.244 0.479 0.03 0.96 0.047 1.436 0.047 0.676 0 1.353-0.032 2.023-0.102 0.67-0.065 1.342-0.168 2.001-0.303 0.66-0.13 1.314-0.298 1.958-0.497 0.649-0.201 1.282-0.433 1.904-0.698 0.623-0.26 1.234-0.552 1.824-0.876 0.594-0.324 1.167-0.676 1.725-1.061 0.557-0.378 1.098-0.789 1.612-1.221 0.514-0.439 1.011-0.899 1.482-1.38 0.471-0.486 0.914-0.994 1.336-1.524 0.417-0.525 0.811-1.077 1.18-1.645 0.361-0.568 0.696-1.152 1.005-1.757 0.303-0.601 0.579-1.217 0.828-1.844 0.244-0.633 0.454-1.271 0.638-1.92 0.179-0.655 0.324-1.314 0.443-1.98 0.114-0.665 0.195-1.335 0.244-2.006 0.03-0.479 0.047-0.96 0.047-1.436 0-0.676-0.032-1.353-0.102-2.023-0.065-0.67-0.168-1.342-0.298-2.001-0.136-0.66-0.303-1.314-0.503-1.958-0.201-0.649-0.433-1.282-0.692-1.904-0.266-0.623-0.558-1.234-0.882-1.824-0.324-0.594-0.676-1.167-1.061-1.725-0.378-0.557-0.789-1.092-1.221-1.612-0.439-0.514-0.899-1.011-1.38-1.482-0.486-0.471-0.994-0.914-1.519-1.336-0.53-0.417-1.083-0.811-1.65-1.18-0.568-0.361-1.152-0.696-1.752-1.005-0.607-0.302-1.223-0.577-1.85-0.826-0.627-0.244-1.271-0.455-1.921-0.639-0.649-0.178-1.308-0.324-1.974-0.443-0.665-0.113-1.336-0.195-2.012-0.244-0.476-0.031-0.951-0.048-1.433-0.048-0.676 0-1.347 0.032-2.023 0.102-0.67 0.065-1.336 0.168-2.001 0.303-0.66 0.13-1.314 0.298-1.958 0.497-0.649 0.201-1.282 0.433-1.904 0.698-0.623 0.26-1.228 0.552-1.824 0.876-0.59 0.324-1.167 0.676-1.725 1.061-0.557 0.378-1.092 0.789-1.612 1.221-0.514 0.439-1.011 0.899-1.482 1.38-0.471 0.486-0.914 0.994-1.336 1.524-0.417 0.525-0.811 1.077-1.174 1.645-0.367 0.568-0.702 1.152-1.011 1.757-0.303 0.601-0.579 1.217-0.822 1.844-0.249 0.633-0.46 1.271-0.638 1.92-0.184 0.655-0.33 1.314-0.443 1.98-0.118 0.667-0.2 1.337-0.243 2.009-0.037 0.476-0.054 0.957-0.054 1.433zm23.626 9c0-3.104 2.52-5.624 5.624-5.624s5.624 2.52 5.624 5.624-2.52 5.624-5.624 5.624-5.624-2.52-5.624-5.624z" fill-opacity=".2" transform="matrix(.28571 0 0 .28571 .57143 .57143)" filter="url(#blurDropShadow)" fill="#263238"/>
 <path id="layerForegroundIcon" fill="#fff" d="m8.2857 12.571c0-4.2606 3.4537-7.7143 7.7143-7.7143s7.7143 3.4537 7.7143 7.7143-3.4537 7.7143-7.7143 7.7143-7.7143-3.4537-7.7143-7.7143zm1.9286 0c0 0.19314 0.0091 0.38657 0.02914 0.578 0.01857 0.19143 0.048 0.38171 0.08657 0.57171 0.03714 0.18857 0.08514 0.37543 0.142 0.55943 0.05742 0.18543 0.12371 0.36628 0.19943 0.544 0.07428 0.178 0.15772 0.35086 0.25029 0.52114 0.09257 0.16972 0.19314 0.33343 0.30314 0.49286 0.108 0.15914 0.22543 0.312 0.34886 0.46057 0.12543 0.14686 0.25686 0.28886 0.39428 0.42343 0.13886 0.13457 0.284 0.26114 0.43543 0.38172 0.15 0.11914 0.30771 0.23171 0.47 0.33543 0.16229 0.10486 0.32914 0.20057 0.502 0.28886 0.17172 0.08657 0.34772 0.16543 0.52686 0.23486 0.18086 0.07114 0.36314 0.13143 0.54857 0.184 0.18714 0.05114 0.37543 0.09257 0.56571 0.12657 0.19 0.03257 0.38143 0.05571 0.57314 0.06971 0.13686 0.0086 0.27429 0.01343 0.41029 0.01343 0.19314 0 0.38657-0.0091 0.578-0.02915 0.19143-0.01857 0.38343-0.048 0.57171-0.08657 0.18857-0.03714 0.37543-0.08514 0.55943-0.142 0.18543-0.05743 0.36629-0.12371 0.544-0.19943 0.178-0.07429 0.35257-0.15771 0.52114-0.25029 0.16971-0.09257 0.33343-0.19314 0.49286-0.30314 0.15914-0.108 0.31371-0.22543 0.46057-0.34886 0.14686-0.12543 0.28886-0.25686 0.42343-0.39429 0.13457-0.13886 0.26114-0.284 0.38171-0.43543 0.11914-0.15 0.23171-0.30771 0.33714-0.47 0.10314-0.16229 0.19886-0.32914 0.28714-0.502 0.08657-0.17171 0.16543-0.34771 0.23657-0.52686 0.06971-0.18086 0.12972-0.36314 0.18229-0.54857 0.05115-0.18714 0.09257-0.37543 0.12657-0.56571 0.03257-0.19 0.05571-0.38143 0.06971-0.57314 0.0086-0.13686 0.01343-0.27429 0.01343-0.41029 0-0.19314-0.0091-0.38657-0.02915-0.578-0.01857-0.19143-0.048-0.38343-0.08514-0.57172-0.03886-0.18857-0.08657-0.37543-0.14371-0.55943-0.05743-0.18543-0.12371-0.36629-0.19772-0.544-0.076-0.178-0.15943-0.35257-0.252-0.52114-0.093-0.1693-0.193-0.333-0.303-0.4924-0.108-0.1592-0.226-0.312-0.349-0.4606-0.125-0.1469-0.257-0.2889-0.394-0.4234-0.139-0.1346-0.284-0.2612-0.434-0.3817-0.152-0.1192-0.31-0.2318-0.472-0.3372-0.162-0.1031-0.329-0.1988-0.5-0.2871-0.17343-0.08629-0.34943-0.16486-0.52857-0.236-0.17914-0.06971-0.36314-0.13-0.54886-0.18257-0.18543-0.05086-0.37371-0.09257-0.564-0.12657-0.19-0.03228-0.38171-0.05571-0.57486-0.06971-0.136-0.0089-0.27171-0.01371-0.40943-0.01371-0.19314 0-0.38486 0.0091-0.578 0.02915-0.19143 0.01857-0.38171 0.048-0.57171 0.08657-0.18857 0.03714-0.37543 0.08514-0.55943 0.142-0.18543 0.05743-0.36629 0.12371-0.544 0.19943-0.178 0.07428-0.35086 0.15771-0.52114 0.25028-0.16857 0.09257-0.33343 0.19314-0.49286 0.30314-0.15914 0.108-0.312 0.22543-0.46057 0.34886-0.14686 0.12543-0.28886 0.25686-0.42343 0.39429-0.13457 0.13886-0.26114 0.284-0.38172 0.43543-0.11914 0.15-0.23171 0.30772-0.33543 0.47-0.10486 0.16228-0.20057 0.32914-0.28886 0.502-0.08657 0.17171-0.16543 0.34771-0.23486 0.52686-0.07114 0.18086-0.13143 0.36314-0.18229 0.54857-0.05257 0.18714-0.09429 0.37543-0.12657 0.56572-0.03371 0.19057-0.05715 0.382-0.06943 0.574-0.01057 0.136-0.01543 0.27343-0.01543 0.40943zm6.7503 2.5714c0-0.88686 0.72-1.6069 1.6069-1.6069 0.88686 0 1.6069 0.72 1.6069 1.6069 0 0.88686-0.72 1.6069-1.6069 1.6069-0.88686 0-1.6069-0.72-1.6069-1.6069z"/>
 <path id="layerForegroundShade" fill-opacity=".1" fill="#212121" d="m16 6.6374c-0.136 0-0.27343 0.0048-0.40943 0.01371-0.192 0.01371-0.38343 0.03715-0.57314 0.06972-0.19028 0.034-0.37857 0.07543-0.56571 0.12828-0.18543 0.05114-0.368 0.11114-0.54857 0.18229-0.17914 0.06971-0.35514 0.14829-0.52686 0.23486-0.17286 0.08771-0.33971 0.184-0.502 0.28886-0.16229 0.10371-0.32 0.21628-0.47 0.33714-0.15143 0.11914-0.29657 0.24571-0.43429 0.38028-0.13886 0.13457-0.27029 0.27657-0.394 0.42343-0.12514 0.14829-0.24086 0.30143-0.35057 0.46057-0.11 0.15943-0.21057 0.32314-0.30314 0.49286-0.09257 0.17-0.176 0.34286-0.25029 0.52114-0.07543 0.17772-0.142 0.35829-0.19943 0.544-0.05686 0.184-0.10486 0.37057-0.142 0.55943-0.03886 0.19-0.068 0.38028-0.08657 0.57314-0.02029 0.19143-0.02914 0.38343-0.02914 0.57629 0.0017 0.02915 0.0017 0.05743 0.0031 0.08657 0.0017-0.17172 0.0091-0.34457 0.026-0.51629 0.01857-0.19143 0.048-0.38171 0.08657-0.57171 0.03886-0.18857 0.08514-0.37543 0.142-0.55943 0.05743-0.18543 0.12372-0.36628 0.19943-0.544 0.07428-0.178 0.15943-0.35086 0.25028-0.52114 0.09257-0.16971 0.19457-0.33343 0.30314-0.49286 0.11-0.1592 0.226-0.3137 0.351-0.4606 0.124-0.1483 0.255-0.2889 0.394-0.4234 0.138-0.1346 0.283-0.2612 0.434-0.3817 0.15143-0.11914 0.30771-0.23171 0.47-0.33714 0.16229-0.10314 0.33086-0.19886 0.502-0.28714 0.17171-0.08829 0.34772-0.16543 0.52686-0.23657 0.18086-0.06971 0.36314-0.12972 0.55029-0.18229 0.18543-0.05114 0.37371-0.09429 0.564-0.12657 0.19-0.03257 0.38143-0.05571 0.57314-0.06971 0.13714-0.0091 0.27343-0.01371 0.40943-0.01371 0.19314 0 0.38657 0.0091 0.578 0.02915 0.19143 0.01857 0.38343 0.048 0.57171 0.08657 0.19029 0.03714 0.37543 0.08514 0.56086 0.142 0.184 0.05743 0.36486 0.12371 0.54228 0.19771 0.178 0.076 0.35257 0.15943 0.52114 0.252 0.16971 0.09257 0.33343 0.19314 0.49286 0.30314 0.15914 0.108 0.31371 0.22543 0.46057 0.34886 0.14828 0.12543 0.28886 0.25686 0.42343 0.39429 0.13457 0.13886 0.26257 0.284 0.38171 0.434 0.12057 0.15143 0.23171 0.30943 0.33714 0.47143 0.10314 0.16228 0.19886 0.32914 0.28714 0.502 0.08829 0.17172 0.16686 0.34772 0.23657 0.52686 0.06971 0.18086 0.12971 0.36314 0.18228 0.54857 0.05115 0.18714 0.09429 0.37543 0.12657 0.56571 0.03257 0.19 0.05571 0.38143 0.06971 0.57314 0.006 0.108 0.01057 0.21486 0.01057 0.32286 0.0017-0.02143 0.0031-0.04143 0.0031-0.06171 0-0.136-0.0048-0.27343-0.01371-0.40943-0.01371-0.192-0.03714-0.38343-0.06971-0.57314-0.03257-0.19028-0.07543-0.37857-0.12657-0.56571-0.05257-0.18543-0.11286-0.368-0.18229-0.54857-0.0711-0.17914-0.14996-0.35514-0.23653-0.52686-0.08828-0.17286-0.184-0.33972-0.28714-0.502-0.105-0.1627-0.217-0.3201-0.337-0.4715-0.121-0.15-0.248-0.2952-0.382-0.4323-0.135-0.1392-0.275-0.2706-0.424-0.3957-0.146-0.1238-0.301-0.2415-0.46-0.3495-0.15943-0.11-0.32314-0.21057-0.49286-0.30314-0.16857-0.09086-0.34286-0.176-0.52114-0.25029-0.17771-0.07543-0.35829-0.142-0.544-0.19943-0.184-0.05686-0.37057-0.10314-0.55943-0.142-0.18829-0.03886-0.38028-0.068-0.57171-0.08657-0.19143-0.02029-0.38486-0.02914-0.578-0.02914zm-7.7111 5.8474c-0.0015 0.028-0.0015 0.05743-0.0031 0.08657 0 4.2606 3.4537 7.7143 7.7143 7.7143s7.7143-3.4537 7.7143-7.7143c-0.0015-0.02029-0.0015-0.04029-0.0031-0.06 0 0.15257-0.006 0.30429-0.01543 0.45743-0.01857 0.25629-0.04943 0.51314-0.09429 0.76629-0.04342 0.25371-0.09886 0.504-0.16857 0.75114-0.068 0.24886-0.15 0.49286-0.24257 0.73229-0.09429 0.23971-0.19943 0.47486-0.31543 0.70343-0.116 0.23028-0.244 0.45257-0.38343 0.66886-0.13886 0.21629-0.28886 0.42657-0.44828 0.62743-0.16057 0.20257-0.33086 0.39572-0.51 0.57943-0.17914 0.18543-0.36743 0.36-0.564 0.52543-0.19628 0.16543-0.40143 0.32172-0.61314 0.46686-0.21314 0.14514-0.43286 0.27971-0.65829 0.40314-0.226 0.12372-0.45771 0.23486-0.694 0.33543-0.23657 0.10057-0.47914 0.18828-0.72486 0.26429-0.24571 0.07543-0.49457 0.13886-0.74657 0.19143-0.252 0.05114-0.50686 0.08971-0.76343 0.11429-0.25486 0.02657-0.51314 0.03886-0.76943 0.03886-0.18229 0-0.36486-0.0063-0.54543-0.01857-0.25628-0.01857-0.51314-0.04943-0.76628-0.09429-0.25314-0.04343-0.50343-0.09886-0.75086-0.16857-0.24886-0.068-0.49286-0.14972-0.73228-0.24229-0.23972-0.09457-0.47457-0.19943-0.70343-0.31543-0.23029-0.116-0.45257-0.244-0.66886-0.38343-0.2163-0.13886-0.42658-0.28886-0.62744-0.44829-0.20257-0.16057-0.39571-0.33086-0.57943-0.51-0.18543-0.17914-0.36-0.36743-0.52543-0.56371-0.1688-0.197-0.3236-0.402-0.4688-0.614-0.1451-0.213-0.2797-0.433-0.4031-0.658-0.1237-0.226-0.2349-0.458-0.3355-0.694-0.1005-0.237-0.1885-0.479-0.2642-0.725-0.0755-0.246-0.1389-0.495-0.1915-0.747-0.0511-0.252-0.0897-0.506-0.1143-0.763-0.0234-0.235-0.0357-0.471-0.0357-0.708zm8.6783 2.5714c-0.0015 0.028-0.0029 0.05743-0.0029 0.08657 0 0.88686 0.71828 1.6069 1.6069 1.6069 0.88686 0 1.6069-0.72 1.6069-1.6069 0-0.02029-0.0011-0.04143-0.0029-0.06171v0.02771c-0.0048 0.05257-0.01114 0.10686-0.02029 0.15914-0.0094 0.05257-0.02171 0.10514-0.03571 0.15629-0.01371 0.05257-0.03086 0.102-0.05114 0.15314-0.01857 0.04943-0.04 0.09886-0.06486 0.14686-0.02457 0.048-0.05115 0.09429-0.08029 0.13886-0.02914 0.04514-0.06 0.08829-0.09257 0.12971-0.034 0.04343-0.06971 0.08343-0.10686 0.12229-0.03714 0.03714-0.07543 0.07429-0.11743 0.108-0.04143 0.03571-0.08343 0.068-0.12828 0.09771-0.04314 0.03086-0.08972 0.05857-0.136 0.08457-0.048 0.02486-0.09572 0.048-0.14514 0.06972-0.04943 0.02029-0.10057 0.03886-0.15143 0.05571-0.05115 0.01543-0.102 0.02771-0.15429 0.03829-0.05257 0.01114-0.10686 0.01857-0.15943 0.02486-0.05372 0.0048-0.10628 0.008-0.16057 0.008-0.03886 0-0.07543-0.0015-0.11429-0.0048-0.05257-0.0031-0.10686-0.0094-0.15914-0.01857-0.05257-0.0094-0.10514-0.02171-0.15629-0.03571-0.05115-0.01371-0.10371-0.03086-0.15314-0.05114-0.04943-0.01857-0.09886-0.04-0.14686-0.06486-0.048-0.02457-0.09428-0.05114-0.13886-0.08028-0.04514-0.02915-0.08829-0.06-0.13143-0.09257-0.042-0.034-0.082-0.06972-0.12057-0.10686-0.03714-0.03714-0.07428-0.07543-0.108-0.11743-0.03571-0.04143-0.068-0.08343-0.09771-0.12829-0.03086-0.04314-0.05857-0.08971-0.08314-0.136-0.02658-0.048-0.04971-0.09571-0.07114-0.14514-0.02029-0.04943-0.03886-0.10057-0.05429-0.15143-0.01714-0.05114-0.02915-0.102-0.04-0.156-0.01114-0.05115-0.01857-0.10514-0.02486-0.15772-0.0031-0.034-0.0048-0.06657-0.0048-0.09886z"/>
 <g fill-rule="evenodd">
  <path id="path55" d="m29.997 14.03v0.28572l0.0029 0.0015v-0.28571l-0.0029-0.0015z"/>
  <path id="path57" d="m2 2v0.28572h27.997v-0.2857h-27.997z" fill-opacity=".2" fill="#fff"/>
  <path id="path59" d="m2 23v0.28572h13.999l7.699 6.714v-0.0029l0.0017 0.0029v-0.28572l-0.0017-0.0029v0.0029l-7.699-6.714h-13.999zm21.7 0v0.28572h6.2974 0.0029v-0.28572h-0.0029-6.2974z" fill-opacity=".2" fill="#263238"/>
 </g>
</svg>
