<?xml version="1.0" encoding="UTF-8" standalone="no"?>
<svg id="ic_launcher" xmlns:rdf="http://www.w3.org/1999/02/22-rdf-syntax-ns#" xmlns="http://www.w3.org/2000/svg" height="48" viewBox="0 0 48 48" width="48" version="1.1" xmlns:cc="http://creativecommons.org/ns#" xmlns:dc="http://purl.org/dc/elements/1.1/">
 <metadata id="metadata63">
  <rdf:RDF>
   <cc:Work rdf:about="">
    <dc:format>image/svg+xml</dc:format>
    <dc:type rdf:resource="http://purl.org/dc/dcmitype/StillImage"/>
    <dc:title/>
   </cc:Work>
  </rdf:RDF>
 </metadata>
 <defs id="defs3">
  <linearGradient id="gradientBackground" x2="0" gradientUnits="userSpaceOnUse" y2="108" gradientTransform="matrix(.44898 0 0 .44898 -.24490 -.24490)">
   <stop id="gradientBackgroundStart" stop-color="#2883f2" offset="0"/>
   <stop id="gradientBackgroundEnd" stop-color="#0b50a5" offset="1"/>
  </linearGradient>
  <linearGradient id="gradientLongShadow" x1="35.615" gradientUnits="userSpaceOnUse" x2="108" gradientTransform="matrix(.44898 0 0 .44898 -.24490 -5.6327)" y1="35.615" y2="108">
   <stop id="stop9" stop-color="#1a237e" stop-opacity=".2" offset="0"/>
   <stop id="stop11" stop-opacity="0" offset="1"/>
  </linearGradient>
  <radialGradient id="gradientFinish" gradientUnits="userSpaceOnUse" cy="0" cx="0" gradientTransform="matrix(.44898 0 0 .44898 -.24490 -.24490)" r="108">
   <stop id="stop14" stop-color="#fff" stop-opacity=".1" offset="0"/>
   <stop id="stop16" stop-color="#fff" stop-opacity="0" offset="1"/>
  </radialGradient>
  <filter id="blurDropShadow" style="color-interpolation-filters:sRGB" height="1.048" width="1.048" y="-.024" x="-.024">
   <feGaussianBlur id="feGaussianBlur19" stdDeviation="0.54"/>
  </filter>
  <filter id="blurMessageShadow" style="color-interpolation-filters:sRGB" height="1.048" width="1.048" y="-.024" x="-.024">
   <feGaussianBlur id="feGaussianBlur22" stdDeviation="0.84"/>
  </filter>
  <filter id="blurAndroidShadow" style="color-interpolation-filters:sRGB" height="1.048" width="1.048" y="-.024" x="-.024">
   <feGaussianBlur id="feGaussianBlur25" stdDeviation="0.72"/>
  </filter>
 </defs>
 <g id="backShadowCircle" transform="translate(0,-60)" display="none">
  <circle id="circle28" opacity="0.12" filter="url(#blurAndroidShadow)" cy="54" cx="54" r="36"/>
  <circle id="circle30" opacity="0.24" filter="url(#blurAndroidShadow)" cy="55" cx="54" r="36"/>
 </g>
 <g id="backShadowSquircle" transform="translate(0,-60)" display="none">
  <path id="path33" opacity="0.12" d="m54 18c-30.857 0-36 5.143-36 36s5.143 36 36 36 36-5.143 36-36-5.143-36-36-36z" filter="url(#blurAndroidShadow)"/>
  <path id="path35" opacity="0.24" d="m54 19c-30.857 0-36 5.143-36 36s5.143 36 36 36 36-5.143 36-36-5.143-36-36-36z" filter="url(#blurAndroidShadow)"/>
 </g>
 <g id="backShadowSquare" transform="translate(0,-60)" display="none">
  <path id="path38" opacity="0.12" d="m30 18c-1.662 0-3.243 0.334-4.68 0.939-1.437 0.606-2.73 1.484-3.814 2.568-1.085 1.085-1.963 2.378-2.568 3.814-0.604 1.438-0.938 3.019-0.938 4.679v47.996c0 1.662 0.334 3.243 0.939 4.68 0.606 1.437 1.484 2.73 2.568 3.814 1.085 1.085 2.378 1.963 3.814 2.568 1.438 0.606 3.019 0.94 4.681 0.94h47.996c1.662 0 3.243-0.334 4.68-0.939 1.437-0.606 2.73-1.484 3.814-2.568 1.085-1.085 1.963-2.378 2.568-3.814 0.606-1.436 0.94-3.017 0.94-4.679v-47.998c0-1.66-0.334-3.241-0.939-4.678-0.606-1.437-1.484-2.73-2.569-3.814-1.084-1.085-2.377-1.963-3.814-2.569-1.437-0.605-3.018-0.939-4.68-0.939h-47.996z" filter="url(#blurAndroidShadow)"/>
  <path id="path40" opacity="0.24" d="m30 19c-1.662 0-3.243 0.334-4.68 0.939-1.437 0.606-2.73 1.484-3.814 2.568-1.085 1.085-1.963 2.378-2.568 3.814-0.606 1.438-0.94 3.019-0.94 4.681v47.996c0 1.662 0.334 3.243 0.939 4.68 0.606 1.437 1.484 2.73 2.568 3.814 1.085 1.085 2.378 1.963 3.814 2.568 1.438 0.606 3.019 0.94 4.681 0.94h47.996c1.662 0 3.243-0.334 4.68-0.939 1.437-0.606 2.73-1.484 3.814-2.568 1.085-1.085 1.963-2.378 2.568-3.814 0.606-1.438 0.94-3.019 0.94-4.681v-47.996c0-1.662-0.334-3.243-0.939-4.68-0.606-1.437-1.484-2.73-2.569-3.814-1.084-1.085-2.377-1.963-3.814-2.569-1.437-0.605-3.018-0.939-4.68-0.939h-47.996z" filter="url(#blurAndroidShadow)"/>
 </g>
 <g id="backShadowMessage" transform="translate(0,-60)" display="none">
  <path id="path43" opacity="0.12" d="m12 23v62h42l23.1 22v-22h18.9v-62z" filter="url(#blurMessageShadow)"/>
  <path id="path45" opacity="0.24" d="m12 24v62h42l23.1 22v-22h18.9v-62z" filter="url(#blurMessageShadow)"/>
 </g>
 <path id="path47" fill="url(#gradientBackground)" d="m2 2v33.449h21.998l12.099 10.551v-0.0046l0.0027 0.0046v-10.551h9.896 0.0045v-14.543l-0.0045-0.0023-0.001-18.904h-43.995z"/>
 <path id="path49" fill="url(#gradientFinish)" d="m2 2v33.449h21.998l12.099 10.551v-0.0046l0.0027 0.0046v-10.551h9.896 0.0045v-14.543l-0.0045-0.0023-0.001-18.904h-43.995z"/>
 <path id="layerLongShadow" fill="url(#gradientLongShadow)" d="m26.575 37.697 9.522 8.303v-0.0046l0.0027 0.0046v-10.551h9.896 0.0045l-0.000023-11.346-13.746-13.746-0.75878-0.69188c-2.028-1.7007-4.6415-2.7271-7.4957-2.7271-6.4469 0-11.673 5.2266-11.673 11.673 0 2.8542 1.0264 5.4677 2.7271 7.4957l0.69188 0.75878 10.83 10.83z"/>
 <path id="layerDropShadow" d="m28 42c0-14.912 12.088-27 27-27s27 12.088 27 27-12.088 27-27 27-27-12.088-27-27zm6.75 0c0 0.676 0.032 1.353 0.102 2.023 0.065 0.67 0.168 1.336 0.303 2.001 0.13 0.66 0.298 1.314 0.497 1.958 0.201 0.649 0.433 1.282 0.698 1.904 0.26 0.623 0.552 1.228 0.876 1.824 0.324 0.594 0.676 1.167 1.061 1.725 0.378 0.557 0.789 1.092 1.221 1.612 0.439 0.514 0.899 1.011 1.38 1.482 0.486 0.471 0.994 0.914 1.524 1.336 0.525 0.417 1.077 0.811 1.645 1.174 0.568 0.367 1.152 0.702 1.757 1.011 0.601 0.303 1.217 0.579 1.844 0.822 0.633 0.249 1.271 0.46 1.92 0.644 0.655 0.179 1.314 0.324 1.98 0.443 0.665 0.114 1.335 0.195 2.006 0.244 0.479 0.03 0.96 0.047 1.436 0.047 0.676 0 1.353-0.032 2.023-0.102 0.67-0.065 1.342-0.168 2.001-0.303 0.66-0.13 1.314-0.298 1.958-0.497 0.649-0.201 1.282-0.433 1.904-0.698 0.623-0.26 1.234-0.552 1.824-0.876 0.594-0.324 1.167-0.676 1.725-1.061 0.557-0.378 1.098-0.789 1.612-1.221 0.514-0.439 1.011-0.899 1.482-1.38 0.471-0.486 0.914-0.994 1.336-1.524 0.417-0.525 0.811-1.077 1.18-1.645 0.361-0.568 0.696-1.152 1.005-1.757 0.303-0.601 0.579-1.217 0.828-1.844 0.244-0.633 0.454-1.271 0.638-1.92 0.179-0.655 0.324-1.314 0.443-1.98 0.114-0.665 0.195-1.335 0.244-2.006 0.03-0.479 0.047-0.96 0.047-1.436 0-0.676-0.032-1.353-0.102-2.023-0.065-0.67-0.168-1.342-0.298-2.001-0.136-0.66-0.303-1.314-0.503-1.958-0.201-0.649-0.433-1.282-0.692-1.904-0.266-0.623-0.558-1.234-0.882-1.824-0.324-0.594-0.676-1.167-1.061-1.725-0.378-0.557-0.789-1.092-1.221-1.612-0.439-0.514-0.899-1.011-1.38-1.482-0.486-0.471-0.994-0.914-1.519-1.336-0.53-0.417-1.083-0.811-1.65-1.18-0.568-0.361-1.152-0.696-1.752-1.005-0.607-0.302-1.223-0.577-1.85-0.826-0.627-0.244-1.271-0.455-1.921-0.639-0.649-0.178-1.308-0.324-1.974-0.443-0.665-0.113-1.336-0.195-2.012-0.244-0.476-0.031-0.951-0.048-1.433-0.048-0.676 0-1.347 0.032-2.023 0.102-0.67 0.065-1.336 0.168-2.001 0.303-0.66 0.13-1.314 0.298-1.958 0.497-0.649 0.201-1.282 0.433-1.904 0.698-0.623 0.26-1.228 0.552-1.824 0.876-0.59 0.324-1.167 0.676-1.725 1.061-0.557 0.378-1.092 0.789-1.612 1.221-0.514 0.439-1.011 0.899-1.482 1.38-0.471 0.486-0.914 0.994-1.336 1.524-0.417 0.525-0.811 1.077-1.174 1.645-0.367 0.568-0.702 1.152-1.011 1.757-0.303 0.601-0.579 1.217-0.822 1.844-0.249 0.633-0.46 1.271-0.638 1.92-0.184 0.655-0.33 1.314-0.443 1.98-0.118 0.667-0.2 1.337-0.243 2.009-0.037 0.476-0.054 0.957-0.054 1.433zm23.626 9c0-3.104 2.52-5.624 5.624-5.624s5.624 2.52 5.624 5.624-2.52 5.624-5.624 5.624-5.624-2.52-5.624-5.624z" fill-opacity=".2" transform="matrix(.44898 0 0 .44898 -.24490 -.24490)" filter="url(#blurDropShadow)" fill="#263238"/>
 <path id="layerForegroundIcon" fill="#fff" d="m11.878 18.612c0-6.6952 5.4273-12.122 12.122-12.122 6.6952 0 12.122 5.4273 12.122 12.122 0 6.6952-5.4273 12.122-12.122 12.122-6.6952 0-12.122-5.4273-12.122-12.122zm3.0306 0c0 0.30351 0.01437 0.60747 0.0458 0.90829 0.02918 0.30082 0.07543 0.59984 0.13604 0.89841 0.05837 0.29633 0.1338 0.58996 0.22314 0.8791 0.09024 0.29139 0.19441 0.57559 0.31339 0.85486 0.11673 0.27971 0.24784 0.55135 0.39331 0.81894 0.14547 0.26669 0.30351 0.52396 0.47637 0.77449 0.16971 0.25008 0.35424 0.49029 0.5482 0.72376 0.1971 0.23078 0.40363 0.45392 0.61959 0.66539 0.2182 0.21147 0.44629 0.41037 0.68424 0.59984 0.23571 0.18722 0.48355 0.36412 0.73857 0.5271 0.25502 0.16478 0.51722 0.31518 0.78886 0.45392 0.26984 0.13604 0.54641 0.25996 0.82792 0.36906 0.2842 0.1118 0.57065 0.20653 0.86204 0.28914 0.29408 0.08037 0.58996 0.14547 0.88898 0.1989 0.29857 0.05118 0.59939 0.08755 0.90065 0.10955 0.21506 0.01346 0.43102 0.0211 0.64474 0.0211 0.30351 0 0.60747-0.01437 0.90828-0.0458 0.30082-0.02918 0.60253-0.07543 0.89841-0.13604 0.29633-0.05837 0.58996-0.1338 0.8791-0.22314 0.29139-0.09025 0.57559-0.19441 0.85486-0.31339 0.27971-0.11673 0.55404-0.24784 0.81894-0.39331 0.26669-0.14547 0.52396-0.30351 0.77449-0.47637 0.25008-0.16972 0.49298-0.35425 0.72376-0.5482 0.23078-0.1971 0.45392-0.40363 0.66539-0.61959 0.21147-0.2182 0.41037-0.44629 0.59984-0.68424 0.18722-0.23571 0.36412-0.48355 0.5298-0.73857 0.16208-0.25502 0.31249-0.51722 0.45122-0.78886 0.13604-0.26984 0.25996-0.54641 0.37176-0.82792 0.10955-0.2842 0.20384-0.57065 0.28645-0.86204 0.08037-0.29408 0.14547-0.58996 0.1989-0.88898 0.05118-0.29857 0.08755-0.59939 0.10955-0.90065 0.01347-0.21506 0.02111-0.43102 0.02111-0.64474 0-0.30351-0.01437-0.60747-0.0458-0.90829-0.02918-0.30082-0.07543-0.60253-0.1338-0.89841-0.06106-0.29633-0.13604-0.58996-0.22584-0.8791-0.09025-0.29139-0.19441-0.57559-0.31069-0.85486-0.11943-0.27972-0.25053-0.55404-0.396-0.81894-0.14547-0.26669-0.30351-0.52396-0.47637-0.77449-0.16972-0.25008-0.35424-0.49029-0.5482-0.72376-0.1971-0.23078-0.40363-0.45392-0.61959-0.66539-0.2182-0.21147-0.44628-0.41037-0.682-0.59984-0.23796-0.18722-0.48625-0.36412-0.74082-0.5298-0.25502-0.16208-0.51722-0.31249-0.78661-0.45122-0.27253-0.13559-0.5491-0.25906-0.83061-0.37086-0.28151-0.10955-0.57065-0.20429-0.86249-0.2869-0.29139-0.07992-0.58726-0.14547-0.88628-0.1989-0.29857-0.05073-0.59984-0.08755-0.90335-0.10955-0.21371-0.01392-0.42698-0.02155-0.64339-0.02155-0.30351 0-0.60478 0.01437-0.90829 0.0458-0.30082 0.02918-0.59984 0.07543-0.89841 0.13604-0.29633 0.05837-0.58996 0.1338-0.8791 0.22314-0.29139 0.09024-0.57559 0.19441-0.85486 0.31339-0.27972 0.11674-0.55135 0.24784-0.81894 0.39331-0.2649 0.14547-0.52396 0.30351-0.77449 0.47637-0.25008 0.16971-0.49029 0.35424-0.72376 0.5482-0.23078 0.1971-0.45392 0.40363-0.66539 0.61959-0.21147 0.2182-0.41037 0.44629-0.59984 0.68424-0.18722 0.23572-0.36412 0.48355-0.5271 0.73857-0.16478 0.25502-0.31518 0.51722-0.45392 0.78886-0.13604 0.26984-0.25996 0.54641-0.36906 0.82792-0.1118 0.2842-0.20653 0.57065-0.28645 0.86204-0.08261 0.29408-0.14816 0.58996-0.1989 0.88898-0.05298 0.29947-0.0898 0.60028-0.1091 0.902-0.01661 0.21371-0.02425 0.42967-0.02425 0.64339zm10.608 4.0408c0-1.3936 1.1314-2.5251 2.5251-2.5251 1.3936 0 2.5251 1.1314 2.5251 2.5251 0 1.3936-1.1314 2.5251-2.5251 2.5251-1.3936 0-2.5251-1.1314-2.5251-2.5251z"/>
 <path id="layerForegroundShade" fill-opacity=".1" fill="#212121" d="m24 9.2874c-0.21371 0-0.42967 0.0076-0.64339 0.02155-0.30171 0.02155-0.60253 0.05837-0.90065 0.10955-0.29902 0.05343-0.5949 0.11853-0.88898 0.20159-0.29139 0.08037-0.57829 0.17465-0.86204 0.28645-0.28151 0.10955-0.55808 0.23302-0.82792 0.36906-0.27163 0.13784-0.53384 0.28914-0.78886 0.45392-0.25502 0.16298-0.50286 0.33988-0.73857 0.5298-0.23796 0.18722-0.46604 0.38612-0.68245 0.59759-0.2182 0.21147-0.42474 0.43461-0.61914 0.66539-0.19665 0.23302-0.37849 0.47367-0.5509 0.72376-0.17286 0.25053-0.3309 0.5078-0.47637 0.77449-0.14547 0.26714-0.27657 0.53878-0.39331 0.81894-0.11853 0.27927-0.22314 0.56302-0.31339 0.85486-0.08935 0.28914-0.16478 0.58233-0.22314 0.8791-0.06106 0.29857-0.10686 0.59759-0.13604 0.90065-0.03188 0.30082-0.0458 0.60253-0.0458 0.90559 0.0027 0.0458 0.0027 0.09024 0.0049 0.13604 0.0027-0.26984 0.01437-0.54147 0.04086-0.81131 0.02918-0.30082 0.07543-0.59984 0.13604-0.89841 0.06106-0.29633 0.1338-0.58996 0.22314-0.8791 0.09024-0.29139 0.19441-0.57559 0.31339-0.85486 0.11673-0.27972 0.25053-0.55135 0.3933-0.81894 0.14547-0.26669 0.30576-0.52396 0.47637-0.77449 0.17241-0.25008 0.35424-0.49298 0.5509-0.72376 0.19441-0.23302 0.40094-0.45392 0.61914-0.66539 0.21641-0.21147 0.44449-0.41037 0.68245-0.59984 0.23796-0.18722 0.48355-0.36412 0.73857-0.5298 0.25502-0.16208 0.51992-0.31249 0.78886-0.45122 0.26984-0.13874 0.54641-0.25996 0.82792-0.37176 0.2842-0.10955 0.57065-0.20384 0.86473-0.28645 0.29139-0.08037 0.58726-0.14816 0.88628-0.1989 0.29857-0.05118 0.59939-0.08755 0.90065-0.10955 0.21551-0.01437 0.42967-0.02155 0.64339-0.02155 0.30351 0 0.60747 0.01437 0.90829 0.0458 0.30082 0.02918 0.60253 0.07543 0.89841 0.13604 0.29902 0.05837 0.58996 0.1338 0.88135 0.22314 0.28914 0.09024 0.57335 0.19441 0.85216 0.31069 0.27971 0.11943 0.55404 0.25053 0.81894 0.396 0.26669 0.14547 0.52396 0.30351 0.77449 0.47637 0.25008 0.16971 0.49298 0.35424 0.72376 0.5482 0.23302 0.1971 0.45392 0.40363 0.66539 0.61959 0.21147 0.2182 0.41261 0.44629 0.59984 0.682 0.18947 0.23796 0.36412 0.48624 0.5298 0.74082 0.16208 0.25502 0.31249 0.51722 0.45122 0.78886 0.13874 0.26984 0.2622 0.54641 0.37176 0.82792 0.10955 0.2842 0.20384 0.57065 0.28645 0.86204 0.08037 0.29408 0.14816 0.58996 0.1989 0.88898 0.05118 0.29857 0.08755 0.59939 0.10955 0.90065 0.0094 0.16971 0.01661 0.33763 0.01661 0.50735 0.0027-0.03368 0.0049-0.0651 0.0049-0.09698 0-0.21371-0.0076-0.42967-0.02155-0.64339-0.021-0.302-0.058-0.603-0.109-0.901-0.052-0.299-0.119-0.595-0.199-0.889-0.083-0.292-0.178-0.578-0.287-0.862-0.111-0.282-0.235-0.558-0.371-0.828-0.139-0.272-0.29-0.534-0.452-0.789-0.165-0.255-0.34-0.503-0.529-0.741-0.19-0.235-0.389-0.464-0.6-0.679-0.212-0.219-0.432-0.425-0.666-0.622-0.23-0.194-0.473-0.379-0.723-0.549-0.251-0.173-0.508-0.331-0.775-0.476-0.265-0.143-0.539-0.277-0.819-0.394-0.279-0.1182-0.563-0.2228-0.855-0.3131-0.289-0.0893-0.582-0.1621-0.879-0.2231-0.296-0.0611-0.597-0.1069-0.898-0.1361-0.30082-0.03188-0.60478-0.0458-0.90829-0.0458zm-12.118 9.1888c-0.0023 0.044-0.0023 0.09024-0.0049 0.13604 0 6.6952 5.4273 12.122 12.122 12.122 6.6952 0 12.122-5.4273 12.122-12.122-0.0023-0.03188-0.0023-0.06331-0.0049-0.09429 0 0.23976-0.0094 0.47816-0.02425 0.71882-0.02918 0.40274-0.07767 0.80637-0.14816 1.2042-0.06824 0.39869-0.15535 0.792-0.2649 1.1804-0.10686 0.39106-0.23572 0.77449-0.38118 1.1507-0.14816 0.37669-0.31339 0.7462-0.49567 1.1054-0.18228 0.36188-0.38343 0.71118-0.60253 1.0511-0.2182 0.33988-0.45392 0.67033-0.70445 0.98596-0.25233 0.31833-0.51992 0.62184-0.80143 0.91053-0.28151 0.29139-0.57739 0.56571-0.88629 0.82567-0.30845 0.25996-0.63082 0.50555-0.96351 0.73363-0.33494 0.22808-0.6802 0.43955-1.0344 0.63351-0.35514 0.19441-0.71926 0.36906-1.0906 0.5271-0.37176 0.15804-0.75294 0.29588-1.1391 0.41531-0.38612 0.11853-0.77718 0.2182-1.1732 0.30082-0.396 0.08037-0.79649 0.14098-1.1997 0.17959-0.40049 0.04176-0.80637 0.06106-1.2091 0.06106-0.28645 0-0.57335-0.0099-0.8571-0.02918-0.40273-0.02918-0.80637-0.07767-1.2042-0.14816-0.3978-0.06824-0.7911-0.15535-1.1799-0.2649-0.39-0.107-0.774-0.236-1.15-0.381-0.376-0.149-0.746-0.314-1.105-0.496-0.362-0.182-0.711-0.383-1.051-0.603-0.34-0.218-0.671-0.453-0.986-0.704-0.319-0.252-0.622-0.52-0.911-0.801-0.291-0.282-0.565-0.578-0.825-0.886-0.263-0.309-0.506-0.632-0.734-0.965-0.228-0.335-0.44-0.68-0.634-1.034-0.194-0.355-0.369-0.719-0.527-1.091-0.158-0.371-0.296-0.753-0.415-1.139-0.118-0.386-0.218-0.777-0.301-1.173-0.08037-0.396-0.14098-0.79649-0.17959-1.1997-0.03681-0.36861-0.05612-0.74037-0.05612-1.1121zm13.637 4.0408c-0.0023 0.044-0.0045 0.09025-0.0045 0.13604 0 1.3936 1.1287 2.5251 2.5251 2.5251 1.3936 0 2.5251-1.1314 2.5251-2.5251 0-0.03188-0.0018-0.0651-0.0045-0.09698v0.04355c-0.0076 0.08261-0.01751 0.16792-0.03188 0.25008-0.01482 0.08261-0.03412 0.16522-0.05612 0.24559-0.02155 0.08261-0.04849 0.16029-0.08037 0.24065-0.02918 0.07767-0.06286 0.15535-0.10192 0.23078-0.03861 0.07543-0.08037 0.14816-0.12616 0.2182-0.0458 0.07094-0.09428 0.13874-0.14547 0.20384-0.05343 0.06825-0.10955 0.1311-0.16792 0.19216-0.05837 0.05837-0.11853 0.11674-0.18453 0.16971-0.06511 0.05612-0.1311 0.10686-0.20159 0.15355-0.0678 0.04849-0.14098 0.09204-0.21372 0.1329-0.07543 0.03906-0.15041 0.07543-0.22808 0.10955-0.07767 0.03188-0.15804 0.06106-0.23796 0.08755-0.08037 0.02425-0.16029 0.04355-0.24245 0.06017-0.08261 0.01751-0.16792 0.02918-0.25053 0.03906-0.08441 0.0076-0.16702 0.01257-0.25233 0.01257-0.06106 0-0.11853-0.0023-0.17959-0.0076-0.08261-0.0049-0.16792-0.01482-0.25008-0.02918-0.08261-0.01482-0.16522-0.03412-0.24559-0.05612-0.08037-0.02155-0.16298-0.04849-0.24065-0.08037-0.07767-0.02918-0.15535-0.06286-0.23078-0.10192-0.07543-0.03861-0.14816-0.08037-0.2182-0.12616-0.07094-0.0458-0.13874-0.09429-0.20653-0.14547-0.066-0.05343-0.12886-0.10955-0.18947-0.16792-0.05837-0.05837-0.11673-0.11853-0.16971-0.18453-0.05612-0.0651-0.10686-0.1311-0.15355-0.20159-0.04849-0.0678-0.09204-0.14098-0.13065-0.21371-0.04176-0.07543-0.07812-0.15041-0.1118-0.22808-0.03188-0.07767-0.06106-0.15804-0.08531-0.23796-0.02694-0.08037-0.0458-0.16029-0.06286-0.24514-0.01751-0.08037-0.02918-0.16522-0.03906-0.24784-0.0049-0.05343-0.0076-0.10461-0.0076-0.15535z"/>
 <g fill-rule="evenodd">
  <path id="path55" d="m45.995 20.904v0.44898l0.0045 0.0023v-0.44898l-0.0045-0.0023z"/>
  <path id="path57" d="m2 2v0.44898h43.995v-0.44898h-43.995z" fill-opacity=".2" fill="#fff"/>
  <path id="path59" d="m2 35v0.44898h21.998l12.099 10.551v-0.0046l0.0027 0.0046v-0.44898l-0.0027-0.0046v0.0046l-12.099-10.551h-21.998zm34.1 0v0.44898h9.896 0.0045v-0.44898h-0.0045-9.896z" fill-opacity=".2" fill="#263238"/>
 </g>
</svg>
