<?xml version="1.0" encoding="UTF-8" standalone="no"?>
<svg id="ic_launcher" xmlns:rdf="http://www.w3.org/1999/02/22-rdf-syntax-ns#" xmlns="http://www.w3.org/2000/svg" height="64" viewBox="0 0 64 64" width="64" version="1.1" xmlns:cc="http://creativecommons.org/ns#" xmlns:dc="http://purl.org/dc/elements/1.1/">
 <metadata id="metadata63">
  <rdf:RDF>
   <cc:Work rdf:about="">
    <dc:format>image/svg+xml</dc:format>
    <dc:type rdf:resource="http://purl.org/dc/dcmitype/StillImage"/>
    <dc:title/>
   </cc:Work>
  </rdf:RDF>
 </metadata>
 <defs id="defs3">
  <linearGradient id="gradientBackground" x2="0" gradientUnits="userSpaceOnUse" y2="108" gradientTransform="matrix(.59184 0 0 .59184 .040816 .040816)">
   <stop id="gradientBackgroundStart" stop-color="#2883f2" offset="0"/>
   <stop id="gradientBackgroundEnd" stop-color="#0b50a5" offset="1"/>
  </linearGradient>
  <linearGradient id="gradientLongShadow" x1="35.615" gradientUnits="userSpaceOnUse" x2="108" gradientTransform="matrix(.59184 0 0 .59184 .040816 -7.0612)" y1="35.615" y2="108">
   <stop id="stop9" stop-color="#1a237e" stop-opacity=".2" offset="0"/>
   <stop id="stop11" stop-opacity="0" offset="1"/>
  </linearGradient>
  <radialGradient id="gradientFinish" gradientUnits="userSpaceOnUse" cy="0" cx="0" gradientTransform="matrix(.59184 0 0 .59184 .040816 .040816)" r="108">
   <stop id="stop14" stop-color="#fff" stop-opacity=".1" offset="0"/>
   <stop id="stop16" stop-color="#fff" stop-opacity="0" offset="1"/>
  </radialGradient>
  <filter id="blurDropShadow" style="color-interpolation-filters:sRGB" height="1.048" width="1.048" y="-.024" x="-.024">
   <feGaussianBlur id="feGaussianBlur19" stdDeviation="0.54"/>
  </filter>
  <filter id="blurMessageShadow" style="color-interpolation-filters:sRGB" height="1.048" width="1.048" y="-.024" x="-.024">
   <feGaussianBlur id="feGaussianBlur22" stdDeviation="0.84"/>
  </filter>
  <filter id="blurAndroidShadow" style="color-interpolation-filters:sRGB" height="1.048" width="1.048" y="-.024" x="-.024">
   <feGaussianBlur id="feGaussianBlur25" stdDeviation="0.72"/>
  </filter>
 </defs>
 <g id="backShadowCircle" transform="translate(0,-44)" display="none">
  <circle id="circle28" opacity="0.12" filter="url(#blurAndroidShadow)" cy="54" cx="54" r="36"/>
  <circle id="circle30" opacity="0.24" filter="url(#blurAndroidShadow)" cy="55" cx="54" r="36"/>
 </g>
 <g id="backShadowSquircle" transform="translate(0,-44)" display="none">
  <path id="path33" opacity="0.12" d="m54 18c-30.857 0-36 5.143-36 36s5.143 36 36 36 36-5.143 36-36-5.143-36-36-36z" filter="url(#blurAndroidShadow)"/>
  <path id="path35" opacity="0.24" d="m54 19c-30.857 0-36 5.143-36 36s5.143 36 36 36 36-5.143 36-36-5.143-36-36-36z" filter="url(#blurAndroidShadow)"/>
 </g>
 <g id="backShadowSquare" transform="translate(0,-44)" display="none">
  <path id="path38" opacity="0.12" d="m30 18c-1.662 0-3.243 0.334-4.68 0.939-1.437 0.606-2.73 1.484-3.814 2.568-1.085 1.085-1.963 2.378-2.568 3.814-0.604 1.438-0.938 3.019-0.938 4.679v47.996c0 1.662 0.334 3.243 0.939 4.68 0.606 1.437 1.484 2.73 2.568 3.814 1.085 1.085 2.378 1.963 3.814 2.568 1.438 0.606 3.019 0.94 4.681 0.94h47.996c1.662 0 3.243-0.334 4.68-0.939 1.437-0.606 2.73-1.484 3.814-2.568 1.085-1.085 1.963-2.378 2.568-3.814 0.606-1.436 0.94-3.017 0.94-4.679v-47.998c0-1.66-0.334-3.241-0.939-4.678-0.606-1.437-1.484-2.73-2.569-3.814-1.084-1.085-2.377-1.963-3.814-2.569-1.437-0.605-3.018-0.939-4.68-0.939h-47.996z" filter="url(#blurAndroidShadow)"/>
  <path id="path40" opacity="0.24" d="m30 19c-1.662 0-3.243 0.334-4.68 0.939-1.437 0.606-2.73 1.484-3.814 2.568-1.085 1.085-1.963 2.378-2.568 3.814-0.606 1.438-0.94 3.019-0.94 4.681v47.996c0 1.662 0.334 3.243 0.939 4.68 0.606 1.437 1.484 2.73 2.568 3.814 1.085 1.085 2.378 1.963 3.814 2.568 1.438 0.606 3.019 0.94 4.681 0.94h47.996c1.662 0 3.243-0.334 4.68-0.939 1.437-0.606 2.73-1.484 3.814-2.568 1.085-1.085 1.963-2.378 2.568-3.814 0.606-1.438 0.94-3.019 0.94-4.681v-47.996c0-1.662-0.334-3.243-0.939-4.68-0.606-1.437-1.484-2.73-2.569-3.814-1.084-1.085-2.377-1.963-3.814-2.569-1.437-0.605-3.018-0.939-4.68-0.939h-47.996z" filter="url(#blurAndroidShadow)"/>
 </g>
 <g id="backShadowMessage" transform="translate(0,-44)" display="none">
  <path id="path43" opacity="0.12" d="m12 23v62h42l23.1 22v-22h18.9v-62z" filter="url(#blurMessageShadow)"/>
  <path id="path45" opacity="0.24" d="m12 24v62h42l23.1 22v-22h18.9v-62z" filter="url(#blurMessageShadow)"/>
 </g>
 <path id="path47" fill="url(#gradientBackground)" d="m3 3v44.092h28.998l15.948 13.908v-0.006l0.0036 0.006v-13.908h13.045 0.0059v-19.17l-0.0059-0.003-0.001-24.919h-57.994z"/>
 <path id="path49" fill="url(#gradientFinish)" d="m3 3v44.092h28.998l15.948 13.908v-0.006l0.0036 0.006v-13.908h13.045 0.0059v-19.17l-0.0059-0.003-0.001-24.919h-57.994z"/>
 <path id="layerLongShadow" fill="url(#gradientLongShadow)" d="m35.395 50.055 12.551 10.945v-0.006l0.0036 0.006v-13.908h13.045 0.0059l-0.001-14.956-18.119-18.119-1-0.912c-2.674-2.242-6.119-3.5948-9.881-3.5948-8.4982 0-15.388 6.8896-15.388 15.388 0 3.7623 1.3529 7.2074 3.5948 9.8807l0.91202 1.0002 14.276 14.276z"/>
 <path id="layerDropShadow" d="m28 42c0-14.912 12.088-27 27-27s27 12.088 27 27-12.088 27-27 27-27-12.088-27-27zm6.75 0c0 0.676 0.032 1.353 0.102 2.023 0.065 0.67 0.168 1.336 0.303 2.001 0.13 0.66 0.298 1.314 0.497 1.958 0.201 0.649 0.433 1.282 0.698 1.904 0.26 0.623 0.552 1.228 0.876 1.824 0.324 0.594 0.676 1.167 1.061 1.725 0.378 0.557 0.789 1.092 1.221 1.612 0.439 0.514 0.899 1.011 1.38 1.482 0.486 0.471 0.994 0.914 1.524 1.336 0.525 0.417 1.077 0.811 1.645 1.174 0.568 0.367 1.152 0.702 1.757 1.011 0.601 0.303 1.217 0.579 1.844 0.822 0.633 0.249 1.271 0.46 1.92 0.644 0.655 0.179 1.314 0.324 1.98 0.443 0.665 0.114 1.335 0.195 2.006 0.244 0.479 0.03 0.96 0.047 1.436 0.047 0.676 0 1.353-0.032 2.023-0.102 0.67-0.065 1.342-0.168 2.001-0.303 0.66-0.13 1.314-0.298 1.958-0.497 0.649-0.201 1.282-0.433 1.904-0.698 0.623-0.26 1.234-0.552 1.824-0.876 0.594-0.324 1.167-0.676 1.725-1.061 0.557-0.378 1.098-0.789 1.612-1.221 0.514-0.439 1.011-0.899 1.482-1.38 0.471-0.486 0.914-0.994 1.336-1.524 0.417-0.525 0.811-1.077 1.18-1.645 0.361-0.568 0.696-1.152 1.005-1.757 0.303-0.601 0.579-1.217 0.828-1.844 0.244-0.633 0.454-1.271 0.638-1.92 0.179-0.655 0.324-1.314 0.443-1.98 0.114-0.665 0.195-1.335 0.244-2.006 0.03-0.479 0.047-0.96 0.047-1.436 0-0.676-0.032-1.353-0.102-2.023-0.065-0.67-0.168-1.342-0.298-2.001-0.136-0.66-0.303-1.314-0.503-1.958-0.201-0.649-0.433-1.282-0.692-1.904-0.266-0.623-0.558-1.234-0.882-1.824-0.324-0.594-0.676-1.167-1.061-1.725-0.378-0.557-0.789-1.092-1.221-1.612-0.439-0.514-0.899-1.011-1.38-1.482-0.486-0.471-0.994-0.914-1.519-1.336-0.53-0.417-1.083-0.811-1.65-1.18-0.568-0.361-1.152-0.696-1.752-1.005-0.607-0.302-1.223-0.577-1.85-0.826-0.627-0.244-1.271-0.455-1.921-0.639-0.649-0.178-1.308-0.324-1.974-0.443-0.665-0.113-1.336-0.195-2.012-0.244-0.476-0.031-0.951-0.048-1.433-0.048-0.676 0-1.347 0.032-2.023 0.102-0.67 0.065-1.336 0.168-2.001 0.303-0.66 0.13-1.314 0.298-1.958 0.497-0.649 0.201-1.282 0.433-1.904 0.698-0.623 0.26-1.228 0.552-1.824 0.876-0.59 0.324-1.167 0.676-1.725 1.061-0.557 0.378-1.092 0.789-1.612 1.221-0.514 0.439-1.011 0.899-1.482 1.38-0.471 0.486-0.914 0.994-1.336 1.524-0.417 0.525-0.811 1.077-1.174 1.645-0.367 0.568-0.702 1.152-1.011 1.757-0.303 0.601-0.579 1.217-0.822 1.844-0.249 0.633-0.46 1.271-0.638 1.92-0.184 0.655-0.33 1.314-0.443 1.98-0.118 0.667-0.2 1.337-0.243 2.009-0.037 0.476-0.054 0.957-0.054 1.433zm23.626 9c0-3.104 2.52-5.624 5.624-5.624s5.624 2.52 5.624 5.624-2.52 5.624-5.624 5.624-5.624-2.52-5.624-5.624z" fill-opacity=".2" transform="matrix(.59184 0 0 .59184 .040816 .040816)" filter="url(#blurDropShadow)" fill="#263238"/>
 <path id="layerForegroundIcon" fill="#fff" d="m16.02 24.898c0-8.826 7.155-15.98 15.98-15.98 8.8255 0 15.98 7.1541 15.98 15.98 0 8.8255-7.1541 15.98-15.98 15.98-8.8255 0-15.98-7.1541-15.98-15.98zm3.9949 0c0 0.40008 0.01894 0.80076 0.06037 1.1973 0.03847 0.39653 0.09943 0.79069 0.17933 1.1843 0.07694 0.39061 0.17637 0.77767 0.29414 1.1588 0.11896 0.3841 0.25626 0.75873 0.4131 1.1269 0.15388 0.36871 0.32669 0.72678 0.51845 1.0795 0.19176 0.35155 0.40008 0.69067 0.62794 1.0209 0.22371 0.32965 0.46696 0.64629 0.72263 0.95404 0.25982 0.3042 0.53206 0.59835 0.81674 0.8771 0.28763 0.27876 0.58829 0.54094 0.90196 0.79069 0.31071 0.2468 0.63741 0.47998 0.97357 0.69482 0.33616 0.2172 0.6818 0.41547 1.0399 0.59835 0.35569 0.17933 0.72026 0.34267 1.0913 0.48649 0.37463 0.14737 0.75222 0.27224 1.1363 0.38114 0.38765 0.10594 0.77767 0.19176 1.1718 0.26218 0.39357 0.06747 0.7901 0.11541 1.1872 0.14441 0.28349 0.01775 0.56816 0.02782 0.84988 0.02782 0.40008 0 0.80076-0.01894 1.1973-0.06037 0.39653-0.03847 0.79424-0.09943 1.1843-0.17933 0.39061-0.07694 0.77767-0.17637 1.1588-0.29414 0.3841-0.11896 0.75874-0.25626 1.1269-0.4131 0.36872-0.15388 0.73033-0.32669 1.0795-0.51845 0.35155-0.19176 0.69067-0.40008 1.0209-0.62794 0.32965-0.22372 0.64984-0.46696 0.95404-0.72263 0.3042-0.25982 0.59835-0.53206 0.8771-0.81674 0.27876-0.28763 0.54094-0.58829 0.79069-0.90196 0.2468-0.31071 0.47998-0.63741 0.69837-0.97357 0.21365-0.33616 0.41192-0.6818 0.5948-1.0399 0.17933-0.35569 0.34267-0.72026 0.49004-1.0913 0.14441-0.37463 0.26869-0.75222 0.37759-1.1363 0.10594-0.38765 0.19176-0.77767 0.26218-1.1718 0.06747-0.39357 0.11541-0.7901 0.14441-1.1872 0.01775-0.28349 0.02782-0.56816 0.02782-0.84988 0-0.40008-0.01894-0.80076-0.06037-1.1973-0.03847-0.39653-0.09943-0.79424-0.17637-1.1843-0.08049-0.39061-0.17933-0.77767-0.29769-1.1588-0.11896-0.3841-0.25626-0.75874-0.40955-1.1269-0.15743-0.36872-0.33024-0.73033-0.522-1.0795-0.192-0.351-0.4-0.69-0.628-1.021-0.224-0.329-0.467-0.646-0.723-0.954-0.26-0.304-0.532-0.598-0.817-0.877-0.287-0.279-0.588-0.541-0.899-0.791-0.313-0.246-0.641-0.48-0.976-0.698-0.336-0.214-0.682-0.412-1.037-0.595-0.359-0.178-0.724-0.341-1.095-0.489-0.371-0.144-0.752-0.269-1.137-0.378-0.384-0.105-0.774-0.191-1.168-0.262-0.394-0.067-0.791-0.115-1.191-0.144-0.282-0.019-0.563-0.029-0.848-0.029-0.40008 0-0.7972 0.01894-1.1973 0.06037-0.39653 0.03847-0.79069 0.09943-1.1843 0.17933-0.39061 0.07694-0.77767 0.17637-1.1588 0.29414-0.3841 0.11896-0.75874 0.25626-1.1269 0.4131-0.36872 0.15388-0.72678 0.32669-1.0795 0.51845-0.34918 0.19176-0.69067 0.40008-1.0209 0.62794-0.32965 0.22371-0.64629 0.46696-0.95404 0.72263-0.3042 0.25982-0.59835 0.53206-0.8771 0.81674-0.27876 0.28763-0.54094 0.58829-0.79069 0.90196-0.2468 0.31072-0.47998 0.63741-0.69482 0.97357-0.2172 0.33616-0.41547 0.6818-0.59835 1.0399-0.17933 0.35569-0.34267 0.72026-0.48649 1.0913-0.14737 0.37463-0.27224 0.75222-0.37759 1.1363-0.1089 0.38765-0.19531 0.77767-0.26218 1.1718-0.06984 0.39476-0.11837 0.79129-0.14382 1.189-0.0219 0.28171-0.03196 0.56639-0.03196 0.8481zm13.983 5.3265c0-1.8371 1.4914-3.3285 3.3285-3.3285s3.3285 1.4914 3.3285 3.3285-1.4914 3.3285-3.3285 3.3285-3.3285-1.4914-3.3285-3.3285z"/>
 <path id="layerForegroundShade" fill-opacity=".1" fill="#212121" d="m32 12.606c-0.28171 0-0.56639 0.01006-0.8481 0.02841-0.39771 0.02841-0.79424 0.07694-1.1872 0.14441-0.39416 0.07043-0.78418 0.15624-1.1718 0.26574-0.3841 0.10594-0.76229 0.23022-1.1363 0.37759-0.37108 0.14441-0.73565 0.30716-1.0913 0.48649-0.35806 0.18169-0.70369 0.38114-1.0399 0.59835-0.33616 0.21484-0.66286 0.44802-0.97357 0.69837-0.31367 0.2468-0.61433 0.50898-0.89959 0.78774-0.28763 0.27876-0.55988 0.5729-0.81614 0.8771-0.25922 0.30716-0.49892 0.62439-0.72618 0.95404-0.22786 0.33024-0.43618 0.66937-0.62794 1.0209-0.19176 0.35214-0.36457 0.7102-0.51845 1.0795-0.15624 0.36812-0.29414 0.74216-0.4131 1.1269-0.11778 0.38114-0.2172 0.76761-0.29414 1.1588-0.08049 0.39357-0.14086 0.78773-0.17933 1.1872-0.04202 0.39653-0.06037 0.79424-0.06037 1.1937 0.0036 0.06037 0.0036 0.11896 0.0065 0.17933 0.0036-0.35569 0.01894-0.71376 0.05386-1.0694 0.03847-0.39653 0.09943-0.79069 0.17933-1.1843 0.08049-0.39061 0.17637-0.77767 0.29414-1.1588 0.11896-0.3841 0.25626-0.75874 0.4131-1.1269 0.15388-0.36872 0.33024-0.72678 0.51845-1.0795 0.19176-0.35155 0.40304-0.69067 0.62794-1.0209 0.22727-0.32965 0.46696-0.64984 0.72618-0.95404 0.25626-0.30716 0.52851-0.59835 0.81614-0.8771 0.28526-0.27876 0.58592-0.54094 0.89959-0.79069 0.31367-0.2468 0.63741-0.47998 0.97357-0.69837 0.33616-0.21365 0.68535-0.41192 1.0399-0.5948 0.35569-0.18288 0.72027-0.34267 1.0913-0.49004 0.37463-0.14441 0.75222-0.26869 1.1399-0.37759 0.3841-0.10594 0.77412-0.19531 1.1683-0.26218 0.39357-0.06747 0.7901-0.11541 1.1872-0.14441 0.28408-0.01894 0.56639-0.02841 0.8481-0.02841 0.40008 0 0.80076 0.01894 1.1973 0.06037 0.39653 0.03847 0.79424 0.09943 1.1843 0.17933 0.39416 0.07694 0.77767 0.17637 1.1618 0.29414 0.38114 0.11896 0.75578 0.25626 1.1233 0.40955 0.36871 0.15743 0.73033 0.33024 1.0795 0.522 0.35155 0.19176 0.69067 0.40008 1.0209 0.62794 0.32965 0.22371 0.64984 0.46696 0.95404 0.72263 0.30716 0.25982 0.59835 0.53206 0.8771 0.81674 0.27876 0.28763 0.5439 0.58829 0.79069 0.899 0.24976 0.31367 0.47998 0.64096 0.69837 0.97653 0.21365 0.33616 0.41192 0.6818 0.5948 1.0399 0.18288 0.35569 0.34563 0.72026 0.49004 1.0913 0.14441 0.37463 0.26869 0.75222 0.37759 1.1363 0.10594 0.38765 0.19531 0.77767 0.26218 1.1718 0.06747 0.39357 0.11541 0.7901 0.14441 1.1872 0.01243 0.22371 0.0219 0.44506 0.0219 0.66878 0.0036-0.04439 0.0065-0.08582 0.0065-0.12784 0-0.28171-0.01006-0.56639-0.02841-0.8481-0.02841-0.39771-0.07694-0.79424-0.14441-1.1872-0.06747-0.39416-0.15624-0.78418-0.26218-1.1718-0.109-0.384-0.234-0.762-0.378-1.136-0.147-0.372-0.311-0.736-0.49-1.092-0.183-0.358-0.381-0.704-0.595-1.04-0.218-0.336-0.448-0.663-0.698-0.976-0.25-0.311-0.512-0.612-0.791-0.896-0.279-0.288-0.569-0.56-0.877-0.819-0.304-0.257-0.624-0.5-0.954-0.724-0.33-0.228-0.669-0.436-1.021-0.628-0.349-0.188-0.71-0.365-1.079-0.519-0.369-0.156-0.743-0.294-1.127-0.413-0.381-0.117-0.768-0.213-1.159-0.294-0.39-0.08-0.788-0.141-1.184-0.179-0.397-0.042-0.798-0.06-1.198-0.06zm-15.973 12.113c-0.003 0.058-0.003 0.11896-0.0065 0.17933 0 8.8255 7.1541 15.98 15.98 15.98 8.8255 0 15.98-7.1541 15.98-15.98-0.003-0.04202-0.003-0.08345-0.0065-0.12429 0 0.31604-0.01243 0.63031-0.03196 0.94753-0.03847 0.53088-0.10239 1.0629-0.19531 1.5873-0.08996 0.52555-0.20478 1.044-0.34918 1.5559-0.14086 0.51549-0.31072 1.0209-0.50247 1.5169-0.19531 0.49655-0.4131 0.98363-0.65339 1.4571-0.24029 0.47702-0.50543 0.93747-0.79424 1.3855-0.28763 0.44802-0.59835 0.88361-0.92859 1.2997-0.33261 0.41961-0.68535 0.81969-1.0564 1.2002-0.37108 0.3841-0.7611 0.74571-1.1683 1.0884-0.40659 0.34267-0.83153 0.66641-1.2701 0.96706-0.44151 0.30065-0.89663 0.57941-1.3636 0.83508-0.46814 0.25627-0.94812 0.48649-1.4376 0.69482-0.49004 0.20833-0.99251 0.39002-1.5015 0.54745-0.50898 0.15624-1.0245 0.28763-1.5465 0.39653-0.522 0.10594-1.0499 0.18584-1.5814 0.23674-0.52792 0.05504-1.0629 0.08049-1.5938 0.08049-0.37759 0-0.75578-0.01302-1.1298-0.03847-0.53088-0.03847-1.0629-0.10239-1.5873-0.19531-0.52437-0.08996-1.0428-0.20478-1.5553-0.34918-0.51549-0.14086-1.0209-0.31012-1.5169-0.50188-0.49655-0.1959-0.98304-0.4131-1.4571-0.65339-0.47702-0.24028-0.93747-0.50543-1.3855-0.79424-0.451-0.289-0.887-0.599-1.303-0.93-0.419-0.332-0.819-0.685-1.2-1.056-0.384-0.371-0.746-0.761-1.088-1.168-0.346-0.407-0.667-0.833-0.967-1.271-0.30065-0.44151-0.57941-0.89663-0.83508-1.3636-0.25627-0.46814-0.48649-0.94812-0.69482-1.4376-0.20833-0.49004-0.39061-0.99251-0.54745-1.5015-0.15624-0.50898-0.28763-1.0245-0.39653-1.5465-0.10594-0.522-0.18584-1.0499-0.23674-1.5814-0.04853-0.4859-0.07398-0.97594-0.07398-1.466zm17.976 5.3265c-0.003 0.058-0.0059 0.11896-0.0059 0.17933 0 1.8371 1.4879 3.3285 3.3285 3.3285 1.8371 0 3.3285-1.4914 3.3285-3.3285 0-0.04202-0.0024-0.08582-0.0059-0.12784v0.05741c-0.01006 0.1089-0.02308 0.22135-0.04202 0.32965-0.01953 0.1089-0.04498 0.2178-0.07398 0.32374-0.02841 0.1089-0.06392 0.21129-0.10594 0.31722-0.03847 0.10239-0.08286 0.20478-0.13435 0.3042-0.0509 0.09943-0.10594 0.19531-0.16631 0.28763-0.06037 0.09351-0.12428 0.18288-0.19176 0.26869-0.07043 0.08996-0.14441 0.17282-0.22135 0.25331-0.07694 0.07694-0.15624 0.15388-0.24324 0.22371-0.08582 0.07398-0.17282 0.14086-0.26573 0.20241-0.08937 0.06392-0.18584 0.12133-0.28172 0.17518-0.09943 0.05149-0.19826 0.09943-0.30065 0.14441-0.10239 0.04202-0.20833 0.08049-0.31367 0.11541-0.10594 0.03196-0.21129 0.05741-0.31959 0.07931-0.1089 0.02308-0.22135 0.03847-0.33024 0.05149-0.11126 0.01006-0.22016 0.01657-0.33261 0.01657-0.08049 0-0.15624-0.003-0.23674-0.01006-0.1089-0.0065-0.22135-0.01953-0.32965-0.03847-0.1089-0.01953-0.2178-0.04498-0.32374-0.07398-0.10594-0.02841-0.21484-0.06392-0.31722-0.10594-0.10239-0.03847-0.20478-0.08286-0.3042-0.13435-0.09943-0.0509-0.19531-0.10594-0.28763-0.16631-0.09351-0.06037-0.18288-0.12429-0.27224-0.19176-0.087-0.07043-0.16986-0.14441-0.24976-0.22135-0.07694-0.07694-0.15388-0.15624-0.22371-0.24324-0.07398-0.08582-0.14086-0.17282-0.20241-0.26574-0.06392-0.08937-0.12133-0.18584-0.17222-0.28171-0.05504-0.09943-0.10298-0.19826-0.14737-0.30065-0.04202-0.10239-0.08049-0.20833-0.11245-0.31367-0.03551-0.10594-0.06037-0.21129-0.08286-0.32314-0.02308-0.10594-0.03847-0.2178-0.05149-0.32669-0.0065-0.07043-0.01006-0.1379-0.01006-0.20478z"/>
 <g fill-rule="evenodd">
  <path id="path55" d="m60.994 27.919v0.59184l0.0059 0.003v-0.59184l-0.0059-0.003z"/>
  <path id="path57" d="m3 3v0.59184h57.994v-0.5918h-57.994z" fill-opacity=".2" fill="#fff"/>
  <path id="path59" d="m3 46.5v0.59184h28.998l15.948 13.908v-0.006l0.0036 0.006v-0.59184l-0.0036-0.006v0.006l-15.948-13.908h-28.998zm44.949 0v0.59184h13.045 0.0059v-0.59184h-0.0059-13.045z" fill-opacity=".2" fill="#263238"/>
 </g>
</svg>
