<?xml version="1.0" encoding="UTF-8" standalone="no"?>
<svg id="ic_launcher" xmlns:rdf="http://www.w3.org/1999/02/22-rdf-syntax-ns#" xmlns="http://www.w3.org/2000/svg" height="108" viewBox="0 0 108 108" width="108" version="1.1" xmlns:cc="http://creativecommons.org/ns#" xmlns:dc="http://purl.org/dc/elements/1.1/">
 <defs>
  <linearGradient id="gradientBackground" x2="0" gradientUnits="userSpaceOnUse" y2="108">
   <stop id="gradientBackgroundStart" stop-color="#2883f2" offset="0" style="stop-color: rgb(40, 131, 242);"></stop>
   <stop id="gradientBackgroundEnd" stop-color="#0b50a5" offset="1" style="stop-color: rgb(11, 80, 165);"></stop>
  </linearGradient>
  <linearGradient id="gradientLongShadow" y2="108" gradientUnits="userSpaceOnUse" y1="35.615" gradientTransform="translate(0,-12)" x2="108" x1="35.615">
   <stop stop-color="#1a237e" stop-opacity=".2" offset="0"></stop>
   <stop stop-opacity="0" offset="1"></stop>
  </linearGradient>
  <radialGradient id="gradientFinish" gradientUnits="userSpaceOnUse" cy="0" cx="0" r="108">
   <stop stop-color="#fff" stop-opacity=".1" offset="0"></stop>
   <stop stop-color="#fff" stop-opacity="0" offset="1"></stop>
  </radialGradient>
  <filter id="blurDropShadow" style="color-interpolation-filters:sRGB" height="1.048" width="1.048" y="-.024" x="-.024">
   <feGaussianBlur stdDeviation="0.54"></feGaussianBlur>
  </filter>
  <filter id="blurMessageShadow" style="color-interpolation-filters:sRGB" height="1.048" width="1.048" y="-.024" x="-.024">
   <feGaussianBlur stdDeviation="0.84"></feGaussianBlur>
  </filter>
  <filter id="blurAndroidShadow" style="color-interpolation-filters:sRGB" height="1.048" width="1.048" y="-.024" x="-.024">
   <feGaussianBlur stdDeviation="0.72"></feGaussianBlur>
  </filter>
 </defs>
 <g id="backShadowCircle" display="none">
  <circle opacity=".12" filter="url(#blurAndroidShadow)" cy="54" cx="54" r="36"></circle>
  <circle opacity=".24" filter="url(#blurAndroidShadow)" cy="55" cx="54" r="36"></circle>
 </g>
 <g id="backShadowSquircle" display="none">
  <path opacity=".12" filter="url(#blurAndroidShadow)" d="m54 18c-30.857 0-36 5.143-36 36s5.143 36 36 36 36-5.143 36-36-5.143-36-36-36z"></path>
  <path opacity=".24" filter="url(#blurAndroidShadow)" d="m54 19c-30.857 0-36 5.143-36 36s5.143 36 36 36 36-5.143 36-36-5.143-36-36-36z"></path>
 </g>
 <g id="backShadowSquare" display="none">
  <path opacity=".12" filter="url(#blurAndroidShadow)" d="m30 18c-1.662 0-3.243.334-4.68.939-1.437.606-2.73 1.484-3.814 2.568-1.085 1.085-1.963 2.378-2.568 3.814-.604 1.438-.938 3.019-.938 4.679v47.996c0 1.662.334 3.243.939 4.68.606 1.437 1.484 2.73 2.568 3.814 1.085 1.085 2.378 1.963 3.814 2.568 1.438.606 3.019.94 4.681.94h47.996c1.662 0 3.243-.334 4.68-.939 1.437-.606 2.73-1.484 3.814-2.568 1.085-1.085 1.963-2.378 2.568-3.814.606-1.436.940-3.017.940-4.679v-47.998c0-1.66-.334-3.241-.939-4.678-.606-1.437-1.484-2.73-2.569-3.814-1.084-1.085-2.377-1.963-3.814-2.569-1.437-.605-3.018-.939-4.68-.939h-47.996z"></path>
  <path opacity=".24" filter="url(#blurAndroidShadow)" d="m30 19c-1.662 0-3.243.334-4.68.939-1.437.606-2.73 1.484-3.814 2.568-1.085 1.085-1.963 2.378-2.568 3.814-.606 1.438-.94 3.019-.94 4.681v47.996c0 1.662.334 3.243.939 4.68.606 1.437 1.484 2.73 2.568 3.814 1.085 1.085 2.378 1.963 3.814 2.568 1.438.606 3.019.94 4.681.94h47.996c1.662 0 3.243-.334 4.68-.939 1.437-.606 2.73-1.484 3.814-2.568 1.085-1.085 1.963-2.378 2.568-3.814.606-1.438.94-3.019.94-4.681v-47.996c0-1.662-.334-3.243-.939-4.68-.606-1.437-1.484-2.73-2.569-3.814-1.084-1.085-2.377-1.963-3.814-2.569-1.437-.605-3.018-.939-4.68-.939h-47.996z"></path>
 </g>
 <g id="backShadowMessage" display="none">
  <path opacity=".12" filter="url(#blurMessageShadow)" d="m12 23v62h42l23.1 22v-22h18.9v-62z"></path>
  <path opacity=".24" filter="url(#blurMessageShadow)" d="m12 24v62h42l23.1 22v-22h18.9v-62z"></path>
 </g>
 <path fill="url(#gradientBackground)" d="m5 5v74.5h48.996l26.947 23.5v-.01l.006.01v-23.5h22.041.01v-32.391l-.01-.005v-42.104h-97.99z"></path>
 <path fill="url(#gradientFinish)" d="m5 5v74.5h48.996l26.947 23.5v-.01l.006.01v-23.5h22.041.01v-32.391l-.01-.005v-42.104h-97.99z"></path>
 <path id="layerLongShadow" fill="url(#gradientLongShadow)" d="m59.736 84.506l21.207 18.494v-.01l.006.01v-23.5h22.041.01v-25.27l-30.615-30.615-1.69-1.541c-4.517-3.788-10.338-6.074-16.695-6.074-14.359 0-26 11.641-26 26 0 6.357 2.286 12.178 6.074 16.695l1.541 1.69 24.121 24.121z"></path>
 <path id="layerDropShadow" d="m28 42c0-14.912 12.088-27 27-27s27 12.088 27 27-12.088 27-27 27-27-12.088-27-27zm6.75 0c0 .676.032 1.353.102 2.023.065.67.168 1.336.303 2.001.13.66.298 1.314.497 1.958.201.649.433 1.282.698 1.904.26.623.552 1.228.876 1.824.324.594.676 1.167 1.061 1.725.378.557.789 1.092 1.221 1.612.439.514.899 1.011 1.38 1.482.486.471.994.914 1.524 1.336.525.417 1.077.811 1.645 1.174.568.367 1.152.702 1.757 1.011.601.303 1.217.579 1.844.822.633.249 1.271.46 1.92.644.655.179 1.314.324 1.98.443.665.114 1.335.195 2.006.244.479.03.96.047 1.436.047.676 0 1.353-.032 2.023-.102.67-.065 1.342-.168 2.001-.303.66-.13 1.314-.298 1.958-.497.649-.201 1.282-.433 1.904-.698.623-.26 1.234-.552 1.824-.876.594-.324 1.167-.676 1.725-1.061.557-.378 1.098-.789 1.612-1.221.514-.439 1.011-.899 1.482-1.38.471-.486.914-.994 1.336-1.524.417-.525.811-1.077 1.18-1.645.361-.568.696-1.152 1.005-1.757.303-.601.579-1.217.828-1.844.244-.633.454-1.271.638-1.92.179-.655.324-1.314.443-1.98.114-.665.195-1.335.244-2.006.03-.479.047-.96.047-1.436 0-.676-.032-1.353-.102-2.023-.065-.670-.168-1.342-.298-2.001-.136-.660-.303-1.314-.503-1.958-.201-.649-.433-1.282-.692-1.904-.266-.623-.558-1.234-.882-1.824-.324-.594-.676-1.167-1.061-1.725-.378-.557-.789-1.092-1.221-1.612-.439-.514-.899-1.011-1.38-1.482-.486-.471-.994-.914-1.519-1.336-.530-.417-1.083-.811-1.65-1.18-.568-.361-1.152-.696-1.752-1.005-.607-.302-1.223-.577-1.85-.826-.627-.244-1.271-.455-1.921-.639-.649-.178-1.308-.324-1.974-.443-.665-.113-1.336-.195-2.012-.244-.476-.031-.951-.048-1.433-.048-.676 0-1.347.032-2.023.102-.67.065-1.336.168-2.001.303-.66.13-1.314.298-1.958.497-.649.201-1.282.433-1.904.698-.623.26-1.228.552-1.824.876-.59.324-1.167.676-1.725 1.061-.557.378-1.092.789-1.612 1.221-.514.439-1.011.899-1.482 1.38-.471.486-.914.994-1.336 1.524-.417.525-.811 1.077-1.174 1.645-.367.568-.702 1.152-1.011 1.757-.303.601-.579 1.217-.822 1.844-.249.633-.46 1.271-.638 1.92-.184.655-.33 1.314-.443 1.98-.118.667-.2 1.337-.243 2.009-.037.476-.054.957-.054 1.433zm23.626 9c0-3.104 2.52-5.624 5.624-5.624s5.624 2.52 5.624 5.624-2.52 5.624-5.624 5.624-5.624-2.52-5.624-5.624z" fill-opacity=".2" filter="url(#blurDropShadow)" fill="#263238"></path>
 <path id="layerForegroundIcon" fill="#fff" d="m27 42c0-14.912 12.088-27 27-27s27 12.088 27 27-12.088 27-27 27-27-12.088-27-27zm6.75 0c0 .676.032 1.353.102 2.023.065.67.168 1.336.303 2.001.13.66.298 1.314.497 1.958.201.649.433 1.282.698 1.904.26.623.552 1.228.876 1.824.324.594.676 1.167 1.061 1.725.378.557.789 1.092 1.221 1.612.439.514.899 1.011 1.38 1.482.486.471.994.914 1.524 1.336.525.417 1.077.811 1.645 1.174.568.367 1.152.702 1.757 1.011.601.303 1.217.579 1.844.822.633.249 1.271.46 1.92.644.655.179 1.314.324 1.98.443.665.114 1.335.195 2.006.244.479.03.96.047 1.436.047.676 0 1.353-.032 2.023-.102.67-.065 1.342-.168 2.001-.303.66-.13 1.314-.298 1.958-.497.649-.201 1.282-.433 1.904-.698.623-.26 1.234-.552 1.824-.876.594-.324 1.167-.676 1.725-1.061.557-.378 1.098-.789 1.612-1.221.514-.439 1.011-.899 1.482-1.38.471-.486.914-.994 1.336-1.524.417-.525.811-1.077 1.18-1.645.361-.568.696-1.152 1.005-1.757.303-.601.579-1.217.828-1.844.244-.633.454-1.271.638-1.92.179-.655.324-1.314.443-1.98.114-.665.195-1.335.244-2.006.03-.479.047-.96.047-1.436 0-.676-.032-1.353-.102-2.023-.065-.670-.168-1.342-.298-2.001-.136-.660-.303-1.314-.503-1.958-.201-.649-.433-1.282-.692-1.904-.266-.623-.558-1.234-.882-1.824-.324-.594-.676-1.167-1.061-1.725-.378-.557-.789-1.092-1.221-1.612-.439-.514-.899-1.011-1.38-1.482-.486-.471-.994-.914-1.519-1.336-.530-.417-1.083-.811-1.65-1.18-.568-.361-1.152-.696-1.752-1.005-.607-.302-1.223-.577-1.85-.826-.627-.244-1.271-.455-1.921-.639-.649-.178-1.308-.324-1.974-.443-.665-.113-1.336-.195-2.012-.244-.476-.031-.951-.048-1.433-.048-.676 0-1.347.032-2.023.102-.67.065-1.336.168-2.001.303-.66.13-1.314.298-1.958.497-.649.201-1.282.433-1.904.698-.623.26-1.228.552-1.824.876-.59.324-1.167.676-1.725 1.061-.557.378-1.092.789-1.612 1.221-.514.439-1.011.899-1.482 1.38-.471.486-.914.994-1.336 1.524-.417.525-.811 1.077-1.174 1.645-.367.568-.702 1.152-1.011 1.757-.303.601-.579 1.217-.822 1.844-.249.633-.46 1.271-.638 1.92-.184.655-.33 1.314-.443 1.98-.118.667-.2 1.337-.243 2.009-.037.476-.054.957-.054 1.433zm23.626 9c0-3.104 2.52-5.624 5.624-5.624s5.624 2.52 5.624 5.624-2.52 5.624-5.624 5.624-5.624-2.52-5.624-5.624z"></path>
 <path id="layerForegroundShade" fill-opacity=".1" fill="#212121" d="m54 21.231c-.476 0-.957.017-1.433.048-.672.048-1.342.13-2.006.244-.666.119-1.325.264-1.98.449-.649.179-1.288.389-1.92.638-.627.244-1.243.519-1.844.822-.605.307-1.189.644-1.757 1.011-.568.363-1.12.757-1.645 1.18-.53.417-1.038.86-1.52 1.331-.486.471-.946.968-1.379 1.482-.438.519-.843 1.055-1.227 1.612-.385.558-.737 1.131-1.061 1.725-.324.595-.616 1.2-.876 1.824-.264.622-.497 1.254-.698 1.904-.199.644-.367 1.297-.497 1.958-.136.665-.238 1.331-.303 2.006-.071.67-.102 1.342-.102 2.017.006.102.006.201.011.303.006-.601.032-1.206.091-1.807.065-.67.168-1.336.303-2.001.136-.66.298-1.314.497-1.958.201-.649.433-1.282.698-1.904.26-.623.558-1.228.876-1.824.324-.594.681-1.167 1.061-1.725.384-.557.789-1.098 1.227-1.612.433-.519.893-1.011 1.379-1.482.482-.471.99-.914 1.52-1.336.53-.417 1.077-.811 1.645-1.18.568-.361 1.158-.696 1.757-1.005.601-.309 1.217-.579 1.844-.828.633-.244 1.271-.454 1.926-.638.649-.179 1.308-.33 1.974-.443.665-.114 1.335-.195 2.006-.244.48-.032.957-.048 1.433-.048.676 0 1.353.032 2.023.102.67.065 1.342.168 2.001.303.666.13 1.314.298 1.963.497.644.201 1.277.433 1.898.692.623.266 1.234.558 1.824.882.594.324 1.167.676 1.725 1.061.557.378 1.098.789 1.612 1.221.519.439 1.011.899 1.482 1.38.471.486.919.994 1.336 1.519.422.53.811 1.083 1.18 1.65.361.568.696 1.152 1.005 1.757.309.601.584 1.217.828 1.844.244.633.454 1.271.638 1.92.179.655.33 1.314.443 1.98.114.665.195 1.335.244 2.006.021.378.037.752.037 1.13.006-.075.011-.145.011-.216 0-.476-.017-.957-.048-1.433-.048-.672-.13-1.342-.244-2.006-.114-.666-.264-1.325-.443-1.98-.184-.649-.395-1.288-.638-1.92-.249-.627-.525-1.243-.828-1.844-.309-.605-.644-1.189-1.005-1.757-.368-.569-.757-1.12-1.18-1.65-.422-.525-.865-1.033-1.336-1.513-.471-.487-.962-.947-1.482-1.385-.514-.433-1.055-.845-1.612-1.223-.558-.385-1.131-.737-1.725-1.061-.590-.318-1.2-.616-1.824-.876-.622-.264-1.254-.497-1.904-.698-.644-.199-1.297-.361-1.958-.497-.659-.136-1.331-.238-2.001-.303-.670-.071-1.347-.102-2.023-.102zm-26.989 20.466c-.005.098-.005.201-.011.303 0 14.912 12.088 27 27 27s27-12.088 27-27c-.005-.071-.005-.141-.011-.21 0 .534-.021 1.065-.054 1.601-.065.897-.173 1.796-.33 2.682-.152.888-.346 1.764-.59 2.629-.238.871-.525 1.725-.849 2.563-.33.839-.698 1.662-1.104 2.462-.406.806-.854 1.584-1.342 2.341-.486.757-1.011 1.493-1.569 2.196-.562.709-1.158 1.385-1.785 2.028-.627.649-1.286 1.26-1.974 1.839-.687.579-1.405 1.126-2.146 1.634-.746.508-1.515.979-2.304 1.411-.791.433-1.602.822-2.429 1.174-.828.352-1.677.659-2.537.925-.86.264-1.731.486-2.613.67-.882.179-1.774.314-2.672.4-.892.093-1.796.136-2.693.136-.638 0-1.277-.022-1.909-.065-.897-.065-1.796-.173-2.682-.33-.886-.152-1.762-.346-2.628-.590-.871-.238-1.725-.524-2.563-.848-.839-.331-1.661-.698-2.462-1.104-.806-.406-1.584-.854-2.341-1.342-.757-.486-1.493-1.011-2.196-1.569-.709-.562-1.385-1.158-2.028-1.785-.649-.627-1.26-1.286-1.839-1.973-.584-.688-1.126-1.407-1.634-2.148-.508-.746-.979-1.515-1.411-2.304-.433-.791-.822-1.602-1.174-2.429-.352-.828-.66-1.677-.925-2.537-.264-.86-.486-1.731-.67-2.613-.179-.882-.314-1.774-.4-2.672-.082-.821-.125-1.649-.125-2.477zm30.374 9c-.005.098-.01.201-.01.303 0 3.104 2.514 5.624 5.624 5.624 3.104 0 5.624-2.52 5.624-5.624 0-.071-.004-.145-.01-.216v.097c-.017.184-.039.374-.071.557-.033.184-.076.368-.125.547-.048.184-.108.357-.179.536-.065.173-.14.346-.227.514-.086.168-.179.33-.281.486-.102.158-.21.309-.324.454-.119.152-.244.292-.374.428-.13.13-.264.26-.411.378-.145.125-.292.238-.449.342-.151.108-.314.205-.476.296-.168.087-.335.168-.508.244-.173.071-.352.136-.53.195-.179.054-.357.097-.54.134-.184.039-.374.065-.558.087-.188.017-.372.028-.562.028-.136 0-.264-.005-.4-.017-.184-.011-.374-.033-.557-.065-.184-.033-.368-.076-.547-.125-.179-.048-.363-.108-.536-.179-.173-.065-.346-.14-.514-.227-.168-.086-.33-.179-.486-.281-.158-.102-.309-.21-.46-.324-.147-.119-.287-.244-.422-.374-.13-.13-.26-.264-.378-.411-.125-.145-.238-.292-.342-.449-.108-.151-.205-.314-.291-.476-.093-.168-.174-.335-.249-.508-.071-.173-.136-.352-.19-.53-.06-.179-.102-.357-.14-.546-.039-.179-.065-.368-.087-.552-.011-.119-.017-.233-.017-.346z"></path>
 <path d="m102.99 47.104v1l.01.005v-1l-.01-.005z" fill-rule="evenodd"></path>
 <path d="m5 5v1h97.99v-1h-97.99z" fill-rule="evenodd" fill-opacity=".2" fill="#fff"></path>
 <path d="m5 78.5v1h48.996l26.947 23.5v-.01l.006.01v-1l-.006-.01v.01l-26.947-23.5h-48.996zm75.949 0v1h22.041.01v-1h-.01-22.041z" fill-rule="evenodd" fill-opacity=".2" fill="#263238"></path>
</svg>